<svg width="195" height="56" fill="none" xmlns="http://www.w3.org/2000/svg"><path d="M194.817 26.016v-3.433h-4.25v-5.325l-.137.046-3.992 1.22-.076.03v4.029h-6.307V20.34c0-1.053.229-1.846.701-2.38.457-.534 1.112-.794 1.95-.794.594 0 1.219.137 1.843.427l.153.077v-3.632l-.077-.03c-.578-.214-1.371-.32-2.361-.32-1.234 0-2.361.274-3.351.808a5.694 5.694 0 00-2.301 2.273c-.533.977-.807 2.09-.807 3.342v2.472h-2.956v3.433h2.956v14.45h4.25v-14.45h6.307v9.186c0 3.784 1.783 5.692 5.286 5.692.579 0 1.189-.061 1.798-.199.625-.137 1.067-.274 1.31-.412l.061-.03v-3.48l-.167.123a2.943 2.943 0 01-.853.366 3.378 3.378 0 01-.838.137c-.823 0-1.432-.229-1.813-.656-.381-.442-.579-1.22-.579-2.289v-8.438h4.25zm-31.459 11.399c-1.538 0-2.757-.52-3.61-1.526-.869-1.007-1.295-2.457-1.295-4.303 0-1.892.442-3.372 1.295-4.41.853-1.022 2.056-1.541 3.58-1.541 1.477 0 2.651.503 3.488 1.48.838.992 1.28 2.457 1.28 4.38 0 1.937-.396 3.433-1.203 4.424-.808.992-1.996 1.496-3.535 1.496zm.183-15.26c-2.94 0-5.286.87-6.947 2.564-1.66 1.71-2.514 4.06-2.514 7.004 0 2.793.823 5.05 2.453 6.684 1.63 1.647 3.839 2.471 6.581 2.471 2.849 0 5.15-.87 6.81-2.609 1.661-1.724 2.514-4.059 2.514-6.943 0-2.838-.792-5.111-2.361-6.744-1.57-1.602-3.763-2.426-6.536-2.426zm-16.301 0c-1.995 0-3.656.52-4.92 1.527-1.28 1.022-1.92 2.35-1.92 3.967 0 .84.137 1.587.411 2.212.275.641.701 1.19 1.265 1.664.563.458 1.432.946 2.59 1.45.975.396 1.691.732 2.148 1.006.441.26.761.52.944.779.168.244.259.595.259 1.007 0 1.205-.899 1.785-2.742 1.785-.686 0-1.462-.137-2.316-.427a8.72 8.72 0 01-2.376-1.206l-.183-.122v4.105l.061.03c.594.275 1.356.52 2.255.702.898.183 1.706.275 2.407.275 2.178 0 3.915-.519 5.195-1.526 1.279-1.022 1.934-2.396 1.934-4.059 0-1.205-.35-2.243-1.036-3.067-.685-.824-1.873-1.587-3.534-2.258-1.325-.534-2.163-.977-2.514-1.312-.335-.32-.502-.794-.502-1.374 0-.518.213-.93.639-1.266.442-.336 1.052-.519 1.813-.519.701 0 1.432.107 2.148.336a6.867 6.867 0 011.874.87l.168.121v-3.89l-.061-.031c-.488-.214-1.127-.382-1.904-.534a10.238 10.238 0 00-2.103-.244zm-17.915 15.26c-1.539 0-2.758-.52-3.611-1.526-.868-1.007-1.295-2.457-1.295-4.303 0-1.892.442-3.372 1.295-4.41.853-1.022 2.057-1.541 3.58-1.541 1.478 0 2.651.503 3.489 1.48.838.992 1.28 2.457 1.28 4.38 0 1.937-.397 3.433-1.204 4.424-.807.992-1.98 1.496-3.534 1.496zm.182-15.26c-2.94 0-5.286.87-6.946 2.564-1.661 1.71-2.514 4.074-2.514 7.02 0 2.792.823 5.05 2.453 6.683 1.63 1.648 3.839 2.472 6.581 2.472 2.849 0 5.149-.87 6.81-2.61 1.66-1.724 2.513-4.059 2.513-6.942 0-2.838-.792-5.112-2.361-6.745-1.569-1.617-3.763-2.441-6.536-2.441zm-15.904 3.526v-3.098h-4.19v17.868h4.19v-9.14c0-1.556.35-2.838 1.051-3.8.685-.945 1.6-1.434 2.712-1.434.38 0 .807.061 1.264.183.457.122.777.26.975.397l.183.122v-4.242l-.061-.03c-.396-.168-.945-.244-1.645-.244a4.271 4.271 0 00-2.803 1.007c-.716.595-1.219 1.388-1.615 2.395l-.061.016zm-11.715-3.525c-1.92 0-3.642.412-5.104 1.236a8.373 8.373 0 00-3.367 3.463c-.761 1.48-1.158 3.205-1.158 5.143 0 1.693.381 3.235 1.128 4.608.746 1.373 1.797 2.441 3.138 3.174 1.34.748 2.88 1.114 4.586 1.114 1.995 0 3.702-.397 5.057-1.19l.061-.031v-3.845l-.183.122a7.746 7.746 0 01-2.056 1.068c-.747.26-1.417.397-2.011.397-1.645 0-2.97-.52-3.93-1.541-.96-1.023-1.448-2.457-1.448-4.258 0-1.816.503-3.28 1.508-4.364 1.006-1.083 2.331-1.632 3.931-1.632 1.386 0 2.727.473 3.991 1.388l.183.122v-4.059l-.061-.03c-.472-.275-1.127-.489-1.935-.656-.792-.138-1.584-.23-2.33-.23zm-12.508.427h-4.19v17.868h4.19V22.583zm-2.057-7.599c-.685 0-1.294.229-1.782.702-.503.473-.746 1.053-.746 1.755 0 .687.243 1.266.746 1.724.487.458 1.097.687 1.798.687.7 0 1.31-.23 1.797-.687.503-.458.747-1.037.747-1.724 0-.672-.244-1.251-.731-1.74-.488-.488-1.112-.717-1.829-.717zm-10.48 6.287v19.195h4.28V15.518h-5.926l-7.541 18.524-7.313-18.524h-6.17v24.933h4.022v-19.18h.137l7.724 19.195h3.032l7.602-19.195h.152zm-56.916 5.691H.183V7.187h19.744v19.775zm21.8 0H21.983V7.187h19.744v19.775zm-21.8 21.851H.183V29.038h19.744v19.775zm21.8 0H21.983V29.038h19.744v19.775z" fill="#C1C1C1"/></svg>