<svg width="143" height="43" fill="none" xmlns="http://www.w3.org/2000/svg"><path fill-rule="evenodd" clip-rule="evenodd" d="M.513 42.703h29.169V.812H.513v41.891zm4.204-4.218h20.746V5.03H4.717v33.455zm44.34-18.879h-1.805c-2.369-3.355-4.72-6.69-7.068-10.458h-.017v10.458h-1.995V5.024h1.807c2.369 3.333 4.716 6.644 7.043 10.392h.042V5.024h1.993v14.582zm5.695-14.582l-5.027 14.583h2.161l1.265-3.98h4.388l1.143 3.98h2.786L56.83 5.024h-2.08zm-.954 8.81c.58-1.916 1.162-3.687 1.682-5.938h.042c.58 2.251 1.102 4.022 1.642 5.939h-3.366zm10.017 5.772V6.98h-3.827V5.024H70.13v1.955h-3.822v12.627h-2.494z" fill="#C1C1C1"/><mask id="mask0" maskUnits="userSpaceOnUse" x="0" y="0" width="143" height="43"><path d="M.513 42.703h142.256V.812H.513v41.891z" fill="#fff"/></mask><g mask="url(#mask0)" fill-rule="evenodd" clip-rule="evenodd" fill="#C1C1C1"><path d="M70.94 19.607h2.476V5.024H70.94v14.583zm10.165.246c3.802 0 6.17-3.394 6.17-7.75 0-4.081-2.614-7.33-6.17-7.33-3.552 0-6.178 3.249-6.178 7.33 0 4.356 2.373 7.75 6.178 7.75zm0-2.083c-2.6 0-3.514-2.874-3.514-5.667 0-2.686 1.038-5.248 3.514-5.248 2.473 0 3.508 2.562 3.508 5.248 0 2.793-.912 5.667-3.508 5.667zm18.578 1.836h-1.807c-2.371-3.355-4.72-6.69-7.067-10.458h-.02v10.458h-1.992V5.024h1.805c2.368 3.333 4.717 6.644 7.04 10.392h.044V5.024h1.997v14.582zm5.696-14.582l-5.029 14.583h2.163l1.264-3.98h4.386l1.145 3.98h2.784l-4.636-14.583h-2.077zm-.958 8.81c.583-1.916 1.162-3.687 1.685-5.938h.041c.582 2.251 1.101 4.022 1.64 5.939h-3.366zm8.395-8.81h2.477v12.623h4.923v1.96h-7.4V5.024zM47.525 31.803v6.02c-1.332.521-2.725.895-4.134.895-4.282 0-6.984-3.334-6.984-7.625 0-3.98 2.702-7.458 7.066-7.458 1.347 0 2.7.503 3.531 1.125l-.81 1.73c-.665-.414-1.706-.768-2.66-.768-2.658 0-4.469 2.104-4.469 5.417 0 3.455 2.08 5.495 4.22 5.495.663 0 1.227-.079 1.749-.352v-4.478h2.49zm8.919-5.955h-4.162v3.997h4.074v1.959h-4.074v4.704h4.906v1.961h-7.401V23.886h6.657v1.962zm7.689 12.87c3.8 0 6.168-3.395 6.168-7.75 0-4.081-2.617-7.333-6.168-7.333-3.559 0-6.175 3.252-6.175 7.333 0 4.355 2.366 7.75 6.175 7.75zm0-2.083c-2.601 0-3.516-2.872-3.516-5.667 0-2.684 1.039-5.247 3.516-5.247 2.47 0 3.508 2.563 3.508 5.247 0 2.795-.916 5.667-3.508 5.667zm18.137-4.832v6.02c-1.332.521-2.72.895-4.135.895-4.28 0-6.983-3.334-6.983-7.625 0-3.98 2.704-7.458 7.068-7.458 1.352 0 2.7.503 3.53 1.125l-.812 1.73c-.664-.414-1.696-.768-2.655-.768-2.663 0-4.472 2.104-4.472 5.417 0 3.455 2.08 5.495 4.221 5.495.667 0 1.225-.079 1.747-.352v-4.478h2.492zm11.102 6.667l-2.936-6.04c1.6-.851 2.52-2.585 2.52-4.335 0-2.836-1.728-4.21-4.515-4.21h-3.885V38.47h2.5v-5.5h1.12l2.346 5.5h2.85zm-6.316-12.622h1.099c1.472 0 2.305.85 2.305 2.352 0 1.956-1.183 2.83-2.368 2.893-.25.025-.834.046-1.036.064v-5.31zm11.384-1.962L93.41 38.47h2.16l1.27-3.982h4.387l1.137 3.982h2.79l-4.637-14.584H98.44zm-.955 8.813c.58-1.92 1.16-3.689 1.684-5.938h.041c.582 2.25 1.101 4.018 1.642 5.938h-3.367zm11.993-1.606c-.259.023-.869.043-1.041.06v-5.305h1.119c1.455 0 2.289.85 2.289 2.352 0 1.957-1.181 2.83-2.367 2.893zm.35-7.207h-3.886v14.583h2.495v-5.5h1.119c2.974 0 4.784-2.417 4.784-4.874 0-2.836-1.727-4.21-4.512-4.21zm16.065 14.584H123.4v-7.018h-5.18v7.017h-2.465V23.886h2.465v5.604h5.18v-5.563h2.493V38.47zm2.388 0h2.479V23.886h-2.479V38.47zm13.696-11.936c-.603-.377-1.597-.812-2.557-.812-2.54 0-4.383 2.104-4.383 5.417 0 3.455 2.034 5.495 4.447 5.495a4.69 4.69 0 002.493-.73l.688 1.814c-.752.52-2.079 1-3.282 1-4.283 0-6.986-3.334-6.986-7.625 0-3.98 2.68-7.458 7.023-7.458 1.291 0 2.493.545 3.35 1.125l-.793 1.774z"/></g></svg>