<svg width="20" height="16" fill="none" xmlns="http://www.w3.org/2000/svg"><path d="M17.256 10.253c-.096-.667-.611-1.187-1.274-1.342-2.577-.604-3.223-2.088-3.332-3.734C12.193 5.092 11.38 5 10 5s-2.193.092-2.65.177c-.109 1.646-.755 3.13-3.332 3.734-.663.156-1.178.675-1.274 1.342l-.497 3.442C2.072 14.907 2.962 16 4.2 16h11.6c1.237 0 2.128-1.093 1.953-2.305l-.497-3.442zM10 13.492c-1.395 0-2.526-1.12-2.526-2.5s1.131-2.5 2.526-2.5c1.395 0 2.526 1.12 2.526 2.5s-1.132 2.5-2.526 2.5zM19.95 4C19.926 2.5 16.108.001 10 0 3.891.001.073 2.5.05 4 .027 5.5.071 7.452 2.585 7.127c2.941-.381 2.76-1.408 2.76-2.876C5.345 3.227 7.737 2.98 10 2.98c2.263 0 4.654.247 4.655 1.271 0 1.468-.181 2.495 2.76 2.876C19.928 7.452 19.973 5.5 19.95 4z" fill="#333"/></svg>