<svg width="22" height="17" fill="none" xmlns="http://www.w3.org/2000/svg"><path d="M21.46 2.012a8.58 8.58 0 01-2.466.676A4.305 4.305 0 0020.881.314a8.591 8.591 0 01-2.725 1.041 4.292 4.292 0 00-7.313 3.914A12.184 12.184 0 011.997.787a4.271 4.271 0 00-.581 2.157 4.29 4.29 0 001.91 3.572 4.276 4.276 0 01-1.945-.537v.054c0 2.08 1.48 3.814 3.443 4.209a4.296 4.296 0 01-1.939.073 4.296 4.296 0 004.01 2.98 8.61 8.61 0 01-5.33 1.838c-.347 0-.688-.02-1.024-.06A12.147 12.147 0 007.12 17c7.893 0 12.21-6.54 12.21-12.21 0-.187-.004-.372-.012-.556a8.719 8.719 0 002.141-2.222z" fill="#fff"/></svg>