<svg width="103" height="30" fill="none" xmlns="http://www.w3.org/2000/svg"><path d="M23.59.02V23h-4.35V12.47l-7.2 10.23h-.06l-6.93-9.57V23H.85V.02h.03l11.19 15.87L23.53.02h.06zm9.817 9.87V23h-4.2V9.89h4.2zm-4.29-4.65c0-.6.23-1.1.69-1.5.48-.42 1.02-.63 1.62-.63.58 0 1.1.21 1.56.63.46.4.69.9.69 1.5s-.23 1.1-.69 1.5c-.46.4-.98.6-1.56.6-.6 0-1.14-.2-1.62-.6-.46-.4-.69-.9-.69-1.5z" fill="#F087B1"/><path d="M42.443 12.89c.36-.7.85-1.33 1.47-1.89.64-.56 1.29-.99 1.95-1.29.66-.32 1.18-.48 1.56-.48l-.21 4.2c-.12-.02-.29-.03-.51-.03-.84 0-1.58.22-2.22.66-.64.44-1.13 1.01-1.47 1.71-.34.68-.51 1.38-.51 2.1V23h-4.17V9.89h3.78l.33 3zm22.455-3V23h-4.2v-1.62c-1.26 1.32-2.72 1.98-4.38 1.98-1.94 0-3.52-.58-4.74-1.74-1.2-1.16-1.8-2.88-1.8-5.16 0-1.44.29-2.7.87-3.78.6-1.1 1.39-1.95 2.37-2.55.98-.6 2.03-.9 3.15-.9 1.16 0 2.08.18 2.76.54.68.34 1.28.83 1.8 1.47l.27-1.35h3.9zm-7.38 10.05c1.46 0 2.52-.66 3.18-1.98v-3.21c-.24-.64-.66-1.15-1.26-1.53-.58-.38-1.27-.57-2.07-.57-.92 0-1.71.34-2.37 1.02-.64.68-.96 1.54-.96 2.58 0 .68.16 1.31.48 1.89.32.56.74 1 1.26 1.32.54.32 1.12.48 1.74.48zM84.496 9.89V23c0 1.24-.36 2.36-1.08 3.36-.7 1.02-1.66 1.81-2.88 2.37-1.2.58-2.51.87-3.93.87-1.08 0-2.03-.13-2.85-.39-.8-.26-1.45-.55-1.95-.87-.48-.32-1.06-.76-1.74-1.32l2.46-2.88c.6.56 1.19 1 1.77 1.32.6.32 1.35.48 2.25.48 1.06 0 1.95-.27 2.67-.81.72-.52 1.08-1.25 1.08-2.19v-1.86c-.4.68-1.02 1.23-1.86 1.65-.82.42-1.83.63-3.03.63-1.18 0-2.28-.3-3.3-.9-1-.62-1.8-1.46-2.4-2.52-.6-1.08-.9-2.27-.9-3.57 0-1.32.31-2.53.93-3.63.64-1.1 1.47-1.96 2.49-2.58 1.04-.62 2.13-.93 3.27-.93 1.08 0 2.04.16 2.88.48.84.3 1.48.7 1.92 1.2l.33-1.02h3.87zm-7.83 10.05c1.68 0 2.89-.66 3.63-1.98v-3.21c-.28-.64-.75-1.15-1.41-1.53-.64-.38-1.38-.57-2.22-.57-1.02 0-1.88.34-2.58 1.02-.7.68-1.05 1.54-1.05 2.58s.35 1.92 1.05 2.64c.7.7 1.56 1.05 2.58 1.05zm19.284-.15c.84 0 1.71-.29 2.61-.87l1.86 3.12c-.72.4-1.48.72-2.28.96-.8.24-1.56.36-2.28.36-1.56 0-2.91-.29-4.05-.87-1.12-.6-1.97-1.43-2.55-2.49-.58-1.08-.87-2.31-.87-3.69 0-1.28.33-2.46.99-3.54.68-1.08 1.6-1.93 2.76-2.55 1.16-.64 2.43-.96 3.81-.96 1.88 0 3.42.55 4.62 1.65 1.22 1.1 2.01 2.67 2.37 4.71l-9.6 3.06c.64.74 1.51 1.11 2.61 1.11zm-.33-7.26c-.94 0-1.69.32-2.25.96-.56.64-.84 1.5-.84 2.58v.27l5.76-1.95c-.42-1.24-1.31-1.86-2.67-1.86z" fill="#56597A"/></svg>