<svg width="374" height="389" fill="none" xmlns="http://www.w3.org/2000/svg"><path fill-rule="evenodd" clip-rule="evenodd" d="M131.498 252.971c-7.018-11.646-19.539-18.195-26.681-29.766-8.81-14.273-22.93-28.806-19.604-45.224 3.316-16.372 23.555-22.223 35.605-33.784 12.1-11.608 21.043-25.607 35.377-34.315 19.899-12.09 43.181-37.273 63.439-25.719 21.552 12.293 8.137 47.587 16.084 71.076 4.985 14.733 17.25 25.373 21.599 40.304 5.368 18.428 12.693 37.893 6.46 56.024-6.606 19.221-23.774 32.481-40.731 43.683-18.467 12.2-40.614 32.645-60.739 23.351-22.4-10.345-18.075-44.5-30.809-65.63z" fill="#FFECF2"/><path clip-rule="evenodd" d="M120.557 258.615c-7.86-13.448-22.204-20.817-30.209-34.175-9.873-16.477-25.887-33.138-21.668-52.395 4.207-19.204 27.764-26.497 41.972-40.276 14.267-13.837 24.933-30.395 41.72-40.893 23.304-14.574 50.819-44.523 74.005-31.48 24.666 13.875 8.343 55.414 17.011 82.679 5.436 17.101 19.391 29.255 24.088 46.602 5.796 21.409 13.835 43.986 6.212 65.311-8.08 22.606-28.249 38.486-48.129 51.958-21.649 14.67-47.743 39.058-70.826 28.653-25.692-11.581-19.915-51.584-34.176-75.984z" stroke="#FFD0E0" stroke-width="2"/></svg>