<svg width="44" height="44" fill="none" xmlns="http://www.w3.org/2000/svg"><path d="M44 21.997a1.289 1.289 0 00-.613-1.094l-4.471-2.757 4.476-2.786a1.29 1.29 0 00.003-2.187L22.685.197a1.29 1.29 0 00-1.37 0L.605 13.173a1.29 1.29 0 00.003 2.187l4.446 2.767-4.448 2.78a1.289 1.289 0 00.002 2.188l4.446 2.767-4.448 2.78a1.29 1.29 0 00-.001 2.185l20.71 12.976a1.288 1.288 0 001.37 0l20.71-12.976a1.29 1.29 0 00-.008-2.19l-4.471-2.756 4.476-2.787c.379-.235.609-.65.608-1.097zM3.723 14.262L22 2.81l18.277 11.452L22 25.638 3.723 14.262zm36.546 15.481L22 41.19 3.72 29.736l3.77-2.358 13.829 8.607a1.288 1.288 0 001.362 0l13.79-8.583 3.798 2.341zM22 33.373L3.725 21.997l3.766-2.354 13.828 8.607a1.287 1.287 0 001.362 0l13.79-8.583 3.792 2.337L22 33.372z" fill="#F78CB6"/></svg>