<svg width="532" height="532" fill="none" xmlns="http://www.w3.org/2000/svg"><path d="M464.422 248.905c5.072 10.383 10.285 21.578 8.547 32.984-2.071 13.633-13.521 23.897-25.236 31.356-9.399 5.98-19.634 11.135-27.852 18.461a10.297 10.297 0 00-2.58 12.143 317.84 317.84 0 0124.596 72.597 6.241 6.241 0 01-6.228 7.498l-39.9-.566a11.435 11.435 0 01-6.075-1.218 11.263 11.263 0 01-3.854-6.124l-26.955-75.978c-1.466-4.132-2.954-8.512-2.113-12.805.899-4.611 4.304-8.289 7.673-11.591a216.24 216.24 0 0121.457-18.442c3.795-2.85 7.803-5.709 10.131-9.823 4.327-7.65 1.669-17.155-1.081-25.49 16.007-15.149 48.016-18.428 69.47-13.002z" fill="#74A3D7"/><path d="M282.753 323.225c2.305-4.993 8.017-7.345 13.222-9.251 17.744-6.499 28.408-12.999 46.152-19.496 5.051-1.85 10.332-3.857 13.822-7.916 3.49-4.059 4.36-10.855.388-14.455l-.014-.244a49.374 49.374 0 0134.972-17.434 31.604 31.604 0 016.843.355 44.216 44.216 0 00-5.036 4.038.965.965 0 00-.252.955 71.03 71.03 0 013.04 11.646 22.059 22.059 0 01-1.054 11.862 23.83 23.83 0 01-7.866 9.06c-6.89 5.362-13.751 10.654-20.172 16.587-5.644 5.219-13.037 11.224-12.975 19.642a30.55 30.55 0 002.202 9.931c-4.472 1.076-8.996 2.041-13.523 2.995a7.473 7.473 0 00-5.675 9.437c5.19 17.31 14.912 36.322 16.137 53.924.374 5.364 2.646 11.911-3.233 14.263-1.486.549-3.08.747-4.656.578l-19.291.048c-5.717-.483-11.872-1.144-16.137-4.939-3.064-2.726-4.671-6.668-6.139-10.479-8.207-21.294-14.582-45.244-20.413-67.294-1.201-4.538-2.32-9.535-.342-13.813z" fill="#74A3D7"/><path d="M247.557 150.604c3.416-3.155 8.349-5.497 12.295-7.957a326.134 326.134 0 0145.546-23.94c32.743-13.85 67.756-21.003 102.387-28.361 18.524-3.94 57.562 17.182 77.399 60.769 19.836 43.586 29.827 84.66-4.501 97.068-56.732 20.505-113.447 29.822-170.027 50.746 0 0-57.775-127.036-61.591-136.669-1.474-3.724-4.779-8.634-1.508-11.656z" fill="#F78CB6"/><path d="M245.702 148.751c3.724-3.378 8.254-5.56 12.502-8.168 4.652-2.857 9.309-5.691 14.058-8.379a311.65 311.65 0 0129.157-14.632 382.139 382.139 0 0162.662-20.237c10.651-2.586 21.364-4.916 32.082-7.202 6.515-1.388 13.058-3.415 19.779-2.685 12.134 1.318 23.577 7.406 33.263 14.556a121.032 121.032 0 0132.695 36.985 206.699 206.699 0 0112.314 26.559 199.108 199.108 0 018.579 25.814c3.421 13.754 5.498 29.744-1.307 42.84a33.233 33.233 0 01-13.786 13.715 86.737 86.737 0 01-13.002 5.159 612.69 612.69 0 01-16.492 5.444c-21.62 6.817-43.56 12.541-65.464 18.351-21.94 5.82-43.863 11.757-65.395 18.962a545.362 545.362 0 00-16.001 5.625 2.618 2.618 0 01-2.96-1.206c-2.117-4.653-4.233-9.308-6.348-13.965a127588.4 127588.4 0 01-15.074-33.207 46640.736 46640.736 0 01-18.07-39.936 12525.18 12525.18 0 01-15.428-34.31 1904.03 1904.03 0 01-4.846-10.944 342.845 342.845 0 01-1.648-3.835 55.78 55.78 0 01-3.075-7.512 7.77 7.77 0 011.789-7.792 2.621 2.621 0 014.416 1.87 2.624 2.624 0 01-.707 1.836 1.99 1.99 0 00-.591 2.103 14.687 14.687 0 001.117 3.249c.621 1.387 1.242 2.765 1.823 4.169l.218.532c.195.477-.252-.585-.126-.298.052.119.101.24.153.355l.709 1.651c1.461 3.369 2.953 6.719 4.446 10.072a5652.175 5652.175 0 0014.719 32.756 20904.998 20904.998 0 0017.864 39.493 36609.06 36609.06 0 0015.556 34.29l5.096 11.22c.8 1.759 1.749 3.514 2.423 5.32.03.079.071.156.106.234l-2.961-1.204c21.131-7.803 42.753-14.155 64.482-20.059 21.367-5.806 42.842-11.218 64.115-17.378 10.836-3.136 21.62-6.462 32.297-10.108 2.68-.915 5.353-1.851 8.019-2.807a43.395 43.395 0 005.038-2.074 35.873 35.873 0 004.32-2.528c.332-.226.656-.46.979-.697.041-.03.396-.296.099-.068a30.637 30.637 0 002.252-1.94 24.382 24.382 0 005.225-6.864 23.427 23.427 0 001.651-3.705 36.86 36.86 0 001.268-4.433 39 39 0 00.423-2.201c.178-1.046.178-1.11.281-2.112a51.88 51.88 0 00.269-5.032 72.597 72.597 0 00-.709-10.438c-2.493-17.443-9.232-34.247-16.439-50.207a122.692 122.692 0 00-29.26-40.882 96.361 96.361 0 00-16.628-12.197 62.741 62.741 0 00-15.733-6.773 46.877 46.877 0 00-3.654-.844c-.553-.105-1.106-.177-1.659-.277-.481-.081.046 0 .122.015l-.475-.059a33.42 33.42 0 00-.937-.097 30.527 30.527 0 00-3.224-.124c-.478.008-.959.03-1.436.065-.246.018-.491.043-.738.066-.847.08.355-.078-.337.04-4.61.779-9.177 1.914-13.745 2.89A1915.122 1915.122 0 00380.079 99a477.894 477.894 0 00-62.126 17.539 326.534 326.534 0 00-57.101 28.577c-3.846 2.362-8.072 4.293-11.442 7.347-2.495 2.256-6.215-1.442-3.708-3.713z" fill="#F78CB6"/><path d="M255.027 255.973c-18.415-40.449-26.849-96.068-9.606-103.917 17.242-7.849 55.356 14.627 73.77 55.076 18.414 40.45 25.325 74.628-7.093 91.405-16.811 8.705-38.65-2.114-57.071-42.564z" fill="#fff"/><path d="M234.257 169.048a32.528 32.528 0 014.295-13.759 14.925 14.925 0 019.789-6.581c10.012-2.048 20.619 2.306 29.117 7.25a105.619 105.619 0 0131.169 28.742 117.847 117.847 0 0112.385 20.939 253.625 253.625 0 019.67 23.845c4.503 13.174 7.98 27.633 5.485 41.581a38.649 38.649 0 01-6.964 16.336 46.012 46.012 0 01-15.373 12.816 27.546 27.546 0 01-13.232 3.42 30.72 30.72 0 01-13.948-3.77c-12.129-6.403-20.748-18.575-27.309-30.242-2.287-4.068-4.369-8.25-6.308-12.493a230.201 230.201 0 01-15.428-46.8 179.994 179.994 0 01-3.465-22.566 89.06 89.06 0 01.117-18.718zm5.914 30.175a225.183 225.183 0 0012.511 45.329A203.252 203.252 0 00257 254.816c6.145 13.456 13.845 27.334 25.508 36.814a41.272 41.272 0 006.361 4.222 33.17 33.17 0 002.256 1.095l.113.049a29.585 29.585 0 003.701 1.263c.51.135 1.021.253 1.536.354.223.047.445.089.668.128.098.018.465.073.626.099 1.982.262 3.989.268 5.973.018.12-.019.301-.044.379-.058a25.405 25.405 0 002.245-.486c.983-.269 1.95-.593 2.896-.972a.646.646 0 01.101-.037c.034-.018.085-.043.211-.1.229-.104.458-.209.683-.317a40.048 40.048 0 001.951-1.021 45.34 45.34 0 007.868-5.374 34.483 34.483 0 009.624-13.34c4.517-11.651 2.736-24.708-.445-36.634a181.21 181.21 0 00-7.668-22.138 161.972 161.972 0 00-10.64-21.956 108.364 108.364 0 00-28.056-31.388 76.5 76.5 0 00-15.144-8.867 49.335 49.335 0 00-3.403-1.291 48.4 48.4 0 00-3.4-1.025 38.496 38.496 0 00-3.474-.735 23.612 23.612 0 00-.649-.098c-.062 0-.422-.051-.514-.06a28.22 28.22 0 00-1.534-.126 24.824 24.824 0 00-3.82.071c-.076 0-.275.032-.395.048-.424.063-.848.134-1.266.227a19.58 19.58 0 00-2.566.773c-.059.021-.057.018-.066.018l-.113.06c-.178.087-.355.168-.532.262-.375.199-.728.428-1.08.662-.055.037-.11.078-.164.119-.125.106-.253.211-.377.32-.347.311-.675.641-.983.99-.142.158-.275.323-.411.486-.034.039-.03.032-.039.042l-.092.139c-.27.393-.532.787-.779 1.197-.246.409-.459.816-.667 1.241-.094.19-.177.38-.271.573a49.37 49.37 0 00-.151.335l-.021.048-.037.096a31.296 31.296 0 00-1.032 3.101 55.106 55.106 0 00-1.614 15.634c.128 6.686.757 13.354 1.881 19.946h-.007zM13.211 453.032c3.8-3.847 9.119-6.03 14.187-7.638a138.784 138.784 0 0127.334-5.091c14.788-1.596 29.691-2.089 44.555-2.267 21.887-.262 43.787.266 65.654 1.157 19.507.796 39.038 1.927 58.465 3.997a312.542 312.542 0 0138.214 5.999 83.547 83.547 0 0121.957 7.719 21.361 21.361 0 019.537 9.287 18.582 18.582 0 011.008 9.48 15.68 15.68 0 01-2.708 8.019 21.407 21.407 0 01-9.862 6.739 85.797 85.797 0 01-20.12 4.417 347.364 347.364 0 01-35.385 2.345c-18.539.48-37.095.26-55.631-.178-22.234-.532-44.472-1.321-66.667-2.769-15.517-1.013-31.033-2.32-46.438-4.544a169.834 169.834 0 01-27.906-5.907 42.315 42.315 0 01-14.874-7.494 15.66 15.66 0 01-5.296-8.744 20.453 20.453 0 01-.354-4.556 14.755 14.755 0 014.33-9.971zm-.367 12.105c.016.234.11.929.09.847.04.252.077.504.13.754.156.685.355 1.36.598 2.02.018.048.014.04.025.072.01.032 0 0 0 0 .08.16.149.327.228.488.17.341.355.673.554.997.207.338.441.658.666.984.029.042.018.032.032.053.014.021.023.021.075.082.136.154.264.313.4.468a18.787 18.787 0 001.992 1.903l.273.219a25.71 25.71 0 001.96 1.345 35.542 35.542 0 003.206 1.757 55.88 55.88 0 001.895.867l.134.059.446.177c.368.147.735.294 1.103.436a75.743 75.743 0 004.716 1.625c3.984 1.241 8.047 2.209 12.131 3.053a336.497 336.497 0 0036.314 5.068c18.816 1.797 37.701 2.822 56.584 3.584 21.601.873 43.225 1.453 64.845 1.509 14.689.039 29.399-.14 44.061-1.095a174.963 174.963 0 0026.539-3.274 59.711 59.711 0 008.287-2.369c.273-.103.545-.211.816-.318l.236-.09.163-.075a36.95 36.95 0 001.47-.686 22.163 22.163 0 002.969-1.773c.065-.046.127-.096.193-.144.298-.25.599-.495.887-.761.287-.266.517-.501.759-.769.117-.128.226-.261.34-.392l.064-.08c.378-.526.72-1.076 1.025-1.647.069-.139.129-.282.2-.419v-.016c.099-.291.218-.574.311-.869.181-.581.327-1.173.434-1.773.053-.289.177-1.318.082-.456.031-.31.074-.62.102-.933.116-1.28.188-2.583.178-3.869 0-.381-.037-.759-.061-1.14v-.115c-.04-.199-.069-.401-.111-.6-.082-.39-.186-.775-.311-1.154-.06-.188-.133-.371-.196-.557-.016-.044-.022-.064-.031-.092l-.031-.061a20.233 20.233 0 00-1.323-2.252c-.052-.072-.054-.08-.075-.111a.412.412 0 01-.057-.061c-.161-.19-.315-.383-.48-.567-.337-.38-.692-.743-1.064-1.091-.396-.376-.807-.73-1.227-1.076l-.284-.225-.018-.013c-.248-.177-.496-.367-.748-.544a34.145 34.145 0 00-3.325-2.036 50.636 50.636 0 00-4.098-1.963l-.066-.03-.167-.068-.576-.236c-.42-.177-.844-.333-1.268-.494a75.54 75.54 0 00-2.628-.947 172.457 172.457 0 00-29.313-6.631c-15.728-2.436-31.617-3.82-47.488-4.885-22.02-1.479-44.092-2.279-66.156-2.66-18.037-.312-36.102-.309-54.122.599a262.151 262.151 0 00-34.768 3.602c-3.882.694-7.72 1.616-11.493 2.761a60.69 60.69 0 00-4.537 1.61c-.145.057-.289.117-.432.177l-.135.059c-.33.147-.66.291-.988.443-.597.279-1.188.575-1.773.887a26.694 26.694 0 00-2.962 1.825c-.111.079-.455.344-.49.365-.146.117-.292.232-.433.355-.363.307-.714.628-1.052.963-.326.326-.633.666-.933 1.016-.06.069-.117.141-.177.212-.11.155-.224.305-.33.462-.234.342-.45.696-.65 1.064-.095.177-.341.75-.41.886-.239.612-.431 1.24-.577 1.88-.039.177-.065.365-.103.548l-.014.064v.033c-.025.373-.069.743-.081 1.118-.006.693 0 1.404.05 2.112v.009z" fill="#F78CB6"/><path d="M186.271 320.03c-7.503 0-13.586-6.083-13.586-13.586s6.083-13.585 13.586-13.585 13.585 6.082 13.585 13.585c0 7.503-6.082 13.586-13.585 13.586zm-34.687-54.55c-5.383 0-9.748-4.364-9.748-9.748 0-5.383 4.365-9.748 9.748-9.748 5.384 0 9.749 4.365 9.749 9.748 0 5.384-4.365 9.748-9.749 9.748zm-20.233 181.588c-9.021 0-16.334-7.313-16.334-16.334s7.313-16.334 16.334-16.334 16.334 7.313 16.334 16.334-7.313 16.334-16.334 16.334zm111.626-259.675c-6.096 0-11.037-4.941-11.037-11.037 0-6.095 4.941-11.037 11.037-11.037 6.096 0 11.037 4.942 11.037 11.037 0 6.096-4.941 11.037-11.037 11.037z" fill="#74A3D7"/><path d="M266.837 220.654l41.482 15.455-7.962-44.805-33.52 29.35zM114.781 321.69l26.268-22.098-33.282-11.732 7.014 33.83zm69.147 143.984l42.605-35.839-53.979-19.03 11.374 54.869z" fill="#F36E72"/><path d="M128.536 379.333l27.356-9.335 9.335 27.356-27.357 9.335-9.334-27.356zm85.698-49.405l24.106 6.962-6.963 24.106-24.105-6.963 6.962-24.105zm71.302-60.569l-28.998 32.267-32.267-28.999 28.998-32.267 32.267 28.999z" fill="#FEE253"/><path d="M201.475 257.688a1.317 1.317 0 011.312-1.264 1.313 1.313 0 011.311 1.264l-.056 4.372a27.055 27.055 0 0116.729-12.69c1.639-.403 2.337 2.128.697 2.528a24.484 24.484 0 00-15.063 11.277 13.462 13.462 0 012.07-.945c1.596-.568 2.277 1.965.697 2.529a9.994 9.994 0 00-5.398 4.644 1.319 1.319 0 01-1.469.579 1.324 1.324 0 01-.975-1.242l.145-11.052zm-66.235 82.147l.665 3.014a65.536 65.536 0 017.512-18.315 1.31 1.31 0 011.776-.439 1.314 1.314 0 01.488 1.764 63.242 63.242 0 00-6.992 16.74 18.137 18.137 0 014.742-2.208 1.314 1.314 0 011.458 1.905 1.313 1.313 0 01-.761.624 15.118 15.118 0 00-6.374 3.832c-.044.234-.115.463-.157.699-.022.16-.078.314-.165.45a1.09 1.09 0 01-.793.497c-.161.02-.324.003-.477-.048a1.316 1.316 0 01-1.605-.264 1.323 1.323 0 01-.289-.502c-.52-2.349-1.039-4.699-1.557-7.049-.362-1.651 2.165-2.35 2.529-.7zm27.197-118.404c-.312-1.649 2.213-2.355 2.529-.697.198 1.076.329 2.163.394 3.256a37.843 37.843 0 0111.683-14.684c1.344-1.019 2.66 1.258 1.324 2.265a34.582 34.582 0 00-10.792 13.896 9.755 9.755 0 013.874-.63c1.682.071 1.69 2.692 0 2.623a7.35 7.35 0 00-5.289 1.896c-.052.177-.117.338-.165.511a1.19 1.19 0 01-1.009.886c-.034.052-.084.087-.116.14a1.314 1.314 0 01-1.627.512 1.32 1.32 0 01-.768-1.523c.507-2.795.494-5.66-.038-8.451zm92.214-8.532c.386-2.266.773-4.532 1.161-6.797.277-1.615 2.66-.986 2.525.571a73.108 73.108 0 018.555-9.987c1.211-1.176 3.066.675 1.853 1.853a70.86 70.86 0 00-9.576 11.541 26.447 26.447 0 014.774-1.515c1.646-.354 2.348 2.174.697 2.527a24.537 24.537 0 00-8.067 3.288c-1.045.665-2.1-.431-1.922-1.481zm-4.091 99.522l.227 5.307a41.868 41.868 0 0110.296-12.778c1.289-1.064 3.153.775 1.853 1.854a40.016 40.016 0 00-9.803 12.048 22.194 22.194 0 013.123-1.532c1.574-.611 2.255 1.923.696 2.529a18.162 18.162 0 00-6.318 4.182 1.33 1.33 0 01-1.419.262 1.322 1.322 0 01-.819-1.188l-.457-10.684c-.073-1.689 2.548-1.685 2.621 0zm-60.198 82.146l.965 2.56a65.818 65.818 0 014.14-18.29c.602-1.557 3.137-.886 2.529.697a64.078 64.078 0 00-4.078 18.088l2.158-3.039c.97-1.366 3.245-.057 2.264 1.323l-5.224 7.35a1.33 1.33 0 01-2.396-.314c-.964-2.561-1.929-5.122-2.892-7.684-.589-1.578 1.945-2.257 2.534-.691zM98.87 415.079l.396.904a96.974 96.974 0 011.896-16.433c.335-1.653 2.863-.953 2.527.697a92.946 92.946 0 00-1.811 16.541l2.085-3.699c.183-.286.469-.491.799-.571.329-.08.677-.029.97.143a1.31 1.31 0 01.496 1.751l-4.637 8.225a1.322 1.322 0 01-2.263 0c-.908-2.079-1.815-4.157-2.72-6.235-.67-1.531 1.588-2.861 2.262-1.323zm25.538-50.886a2.439 2.439 0 11.001-4.877 2.439 2.439 0 01-.001 4.877zm77.225-28.047a2.439 2.439 0 11.001-4.877 2.439 2.439 0 01-.001 4.877zm14.698-40.849a2.438 2.438 0 11-.002-4.876 2.438 2.438 0 01.002 4.876zm-12.259 117.448a2.439 2.439 0 110-4.878 2.439 2.439 0 010 4.878zm-26.361-50.99a2.438 2.438 0 110-4.876 2.438 2.438 0 010 4.876zm-57.053 42.123a2.438 2.438 0 11-.002-4.876 2.438 2.438 0 01.002 4.876zm36.28-113.58a2.439 2.439 0 11.001-4.877 2.439 2.439 0 01-.001 4.877zm142.958-24.646a2.438 2.438 0 11-.002-4.876 2.438 2.438 0 01.002 4.876zm-105.344-55.858a2.439 2.439 0 11.001-4.877 2.439 2.439 0 01-.001 4.877zm77.727-30.999a2.439 2.439 0 11.002-4.878 2.439 2.439 0 01-.002 4.878zm19.769-85.709a2.438 2.438 0 110-4.877 2.438 2.438 0 010 4.877zm-21.473 4.119a2.438 2.438 0 11.001-4.877 2.438 2.438 0 01-.001 4.877zm8.181 4.154a5.776 5.776 0 007.41 1.438 5.775 5.775 0 001.972-1.869c.919-1.408 3.192-.096 2.265 1.322a8.436 8.436 0 01-13.912.433c-1.023-1.342 1.254-2.649 2.265-1.324z" fill="#000"/><path d="M256.663 64.574a50.005 50.005 0 0113.478-19.24 44.82 44.82 0 0120.265-9.915 32.78 32.78 0 0122.112 2.353 25.51 25.51 0 014.692 3.275c5.852 5.257 8.977 13.043 10.981 20.48a82.007 82.007 0 011.364 5.929 13.44 13.44 0 01.285 5.061 3.648 3.648 0 01-2.398 3.109 2.611 2.611 0 01-1.138.031c1.218 2.91 2.428 5.826 3.577 8.764a353.954 353.954 0 012.048 5.352.87.87 0 01.032.513 27.998 27.998 0 01-4.279 24.991c-.754.997-2.462.018-1.699-.993a26.15 26.15 0 004.052-23.585.916.916 0 01-.028-.465 396.647 396.647 0 00-6.849-16.965c-1.223-1.463-2.429-2.942-3.644-4.412a7.243 7.243 0 00-5.935-3.37 6.07 6.07 0 014.209 3.547 6.945 6.945 0 01-.844 7.414 5.863 5.863 0 01-6.882 1.627c-1.153-.516-.154-2.212.993-1.7a3.912 3.912 0 004.497-1.317 5.005 5.005 0 00.41-5.306 3.682 3.682 0 00-3.969-2.33 4.676 4.676 0 00-3.421 3.827c-.219 1.146-1.83.777-1.893-.259-.295.4-.596.795-.912 1.16a25.967 25.967 0 01-8.977 6.76 17.16 17.16 0 01-10.817 1.076 13.718 13.718 0 01-4.916-2.232 11.008 11.008 0 00-1.984-1.563c-1.114-.447-1.67.492-2.192 1.291-.933 1.419-2.092 3.263-3.933 3.492a3.521 3.521 0 01-3.607-2.16 1.467 1.467 0 00-1.442-.95c-.925.063-1.241.907-1.679 1.58a9.748 9.748 0 01-1.708 1.965c.029 2.707.334 5.405.912 8.05 2.456 11.265 10.574 22.364 22.97 23.022a18.866 18.866 0 0015.96-7.329 23.255 23.255 0 004.713-17.812c-.204-1.241 1.69-1.773 1.896-.523a25.438 25.438 0 01-6.854 21.528c2.834 2 4.782 5.02 5.435 8.426.178 1.241-1.715 1.773-1.895.532a11.764 11.764 0 00-5.007-7.601 19.938 19.938 0 01-8.512 4.276 23.125 23.125 0 01-17.412-3.37 30.657 30.657 0 01-11.401-14.733 39.954 39.954 0 01-2.706-13.246c-.217.11-.44.209-.668.296-3.797 1.241-6.829-1.983-7.588-5.452-.946-4.3.732-8.951 2.308-12.899zm27.425 363.53a39.265 39.265 0 0110.608-1.694c3.965-.228 7.934-.409 11.899-.612l24.215-1.241c7.106-.363 14.985-1.305 21.383 2.536a12.565 12.565 0 015.93 7.482 9.755 9.755 0 01-2.068 9.044.831.831 0 01-.777.287.804.804 0 01-.2.044c-20.886.355-41.77.109-62.652-.737a999.607 999.607 0 01-17.653-.866 1.014 1.014 0 01-.983-.984c-.601-6.364 4.735-11.33 10.298-13.259zm124.038-.396c7.448-1.012 15.227-1.755 22.627 0a24.344 24.344 0 0115.418 11.8c.438.84.652 1.78.622 2.727a5.52 5.52 0 01-2.807 4.624 5.506 5.506 0 01-2.706.707c-1.789.062-3.586.05-5.375.075l-21.117.296-7.311.103a27.32 27.32 0 01-8.512-.765 8.644 8.644 0 01-5.406-4.302 8.538 8.538 0 01.258-7.712c2.725-5.228 8.948-6.824 14.309-7.553z" fill="#000"/><path d="M230.335 204.348a6.611 6.611 0 016.228-2 21.141 21.141 0 0112.257 8.375 3.842 3.842 0 01.919 3.403 2.779 2.779 0 01-2.453 1.499 25.457 25.457 0 01-10.941-.869 17.783 17.783 0 0111.867 11.578 4.718 4.718 0 01-.105 4.384 3.087 3.087 0 01-2.66.805 32.115 32.115 0 01-9.532-1.887 21.754 21.754 0 019.234 6.739 5.785 5.785 0 011.587 3.575 3.898 3.898 0 01-1.931 3.264 6.062 6.062 0 01-3.444.618c-8.059-.463-15.511-7.803-17.456-17.202a25.765 25.765 0 016.43-22.282z" fill="#fff"/><path d="M221.901 219.691a27.664 27.664 0 017.27-16.492c5.938-5.886 15.058-.354 19.507 4.742a9.232 9.232 0 012.823 5.132 3.867 3.867 0 01-2.906 3.956 14.67 14.67 0 01-4.196.499 21.65 21.65 0 015.32 8.208c1.084 2.981.736 6.95-3.1 7.39-.737.072-1.48.075-2.218.011a11.151 11.151 0 013.901 6.009 5.591 5.591 0 01-4.543 6.184c-2.437.37-4.929.077-7.214-.848-9.826-3.663-15.554-14.615-14.644-24.791zm4.74 10.362a20.703 20.703 0 007.357 9.439 15.918 15.918 0 004.859 2.279c1.674.445 4.522 1.064 5.765-.523 1.627-2.068-1.342-4.673-2.72-5.973a19.459 19.459 0 00-6.414-4.059c-1.951-.734-1.137-3.869.871-3.16a31.08 31.08 0 008.677 1.807c1.12.06 2.067.177 2.021-1.211a8.859 8.859 0 00-1.021-3.332 15.92 15.92 0 00-10.128-8.973 1.645 1.645 0 01-1.105-2.005 1.64 1.64 0 011.976-1.157 24.533 24.533 0 009.663.913c1.142-.126 2.208-.215 1.55-1.596a13.176 13.176 0 00-2.648-3.336c-3.172-3.192-9.774-7.687-13.849-3.646a23.766 23.766 0 00-4.863 24.533h.009z" fill="#000"/><path d="M444.864 147.364a160.88 160.88 0 0152.313 48.834 515.53 515.53 0 01-5.198 8.911c-5.609 9.372-9.874 18.844-16.605 27.444a13.696 13.696 0 01-3.832 3.712 5.004 5.004 0 01-5.102.119c-2.128-1.419-2.219-4.556-1.419-6.986.8-2.429 2.233-4.699 2.398-7.249a26.146 26.146 0 01-7.253 8.565c-3.16 2.061-7.711 2.506-10.525 0a8.845 8.845 0 01-2.236-8.334 15.25 15.25 0 01.887-2.749 17.156 17.156 0 01-1.937 2.513 9.697 9.697 0 01-8.342 3.247c-3.06-.532-6.738-5.081-.901-16.1 2.887-6.647 6.634-15.512 9.521-22.156a19.56 19.56 0 01-4.562 6.337 6.663 6.663 0 01-7.319 1.034c-3.288-1.95-3.167-6.696-2.376-10.434 2.678-12.663 8.173-24.506 12.488-36.708z" fill="#fff"/><path d="M432.236 177.78c1.365-4.914 3.073-9.723 4.869-14.491 2.057-5.457 4.228-10.871 6.179-16.368.053-.127.123-.246.207-.355l.027-.044c.071-.111.154-.213.25-.303.231-.273.554-.451.908-.503.353-.053.714.025 1.014.219a166.297 166.297 0 0143.237 36.454 150.246 150.246 0 019.672 12.967 1.636 1.636 0 010 1.654c-2.623 4.597-5.387 9.11-7.98 13.724-2.433 4.336-4.756 8.732-7.308 13a63.809 63.809 0 01-8.521 12.018 8.71 8.71 0 01-6 2.903 5.623 5.623 0 01-2.912-.737 5.619 5.619 0 01-2.114-2.134 8.216 8.216 0 01-.647-5.419 11.866 11.866 0 01-4.341 2.889c-1.643.63-3.405.888-5.159.753a8.51 8.51 0 01-7.187-5.078 10.633 10.633 0 01-.846-4.079 10.217 10.217 0 01-7.642 2.167 6.246 6.246 0 01-4.71-3.623 12.97 12.97 0 01.02-9.237 68.842 68.842 0 012.862-6.664c.903-2.085 1.801-4.171 2.692-6.259.754-1.761 1.514-3.52 2.268-5.282a8.602 8.602 0 01-2.318.755 7.11 7.11 0 01-2.865-.093 7.11 7.11 0 01-4.505-3.355 7.121 7.121 0 01-.909-2.72c-.713-4.259.62-8.687 1.759-12.759zm4.032 15.606a5.574 5.574 0 005.209-1.57 20.3 20.3 0 003.743-5.518c1.014-1.903 3.648-.231 2.837 1.654a1616.495 1616.495 0 00-4.839 11.263c-1.635 3.825-3.109 7.792-4.995 11.498a17.648 17.648 0 00-2.515 9.535c.074.812.344 1.594.787 2.279.157.231.343.442.554.626.308.298 0 .034.202.165.165.106.331.2.505.291-.127-.066-.037.014.238.085.199.054.402.095.606.122a6.541 6.541 0 003.141-.465 11.285 11.285 0 005.128-4.564c.96-1.449 3.724-.559 2.996 1.262a9.822 9.822 0 00-.479 7.511 5.362 5.362 0 005.224 3.216c5.524-.058 8.799-5.307 11.395-9.467.8-1.281 3.207-.887 3.054.828a19.88 19.88 0 01-1.784 5.921 9.47 9.47 0 00-1.032 4.916 2.561 2.561 0 002.071 2.374c.371.071.754.059 1.121-.035a8.28 8.28 0 004.433-3.478c5.57-6.964 9.576-15.011 13.928-22.754 2.419-4.309 4.985-8.536 7.448-12.821a155.331 155.331 0 00-37.972-38.836c-3.747-2.704-7.626-5.222-11.571-7.625-2.862 7.842-6.088 15.552-8.69 23.493a79.433 79.433 0 00-3.284 12.413c-.383 2.557-.511 6.702 2.541 7.686v-.005z" fill="#000"/><path d="M332.259 92.327s49.57-39.61 73.494-46.22c23.509-6.492 49.488-5.675 71.299 6.166 31.215 16.962 41.746 48.997 43.934 64.753 3.389 24.346-8.239 52.315-23.288 79.105a163.6 163.6 0 00-52.832-48.85c.267-.788.549-1.57.803-2.362 4.449-13.864 11.172-32.427.874-42.72-7.129-7.123-29.276-16.416-37.995-14.563-34.632 7.358-81.71 27.145-81.71 27.145 5.215-6.797 8.09-14.313 5.421-22.454z" fill="#FFE8AB"/><path d="M325.423 113.953a31.168 31.168 0 005.451-10.153c1.038-3.616.97-7.46-.195-11.037a1.51 1.51 0 01-.039-.367c0-.035 0-.067-.011-.103a1.38 1.38 0 01.087-.532c.012-.043.027-.085.044-.126a1.47 1.47 0 01.245-.339c.037-.039.052-.095.096-.13 2.977-2.38 6.006-4.697 9.044-7a603.198 603.198 0 0121.103-15.299c8.221-5.674 16.609-11.156 25.358-16.006a124.168 124.168 0 0111.729-5.816 74.882 74.882 0 0113.887-4.194 104.02 104.02 0 0142.519-.426 83.88 83.88 0 0136.398 17.414 87.481 87.481 0 0121 25.93 97.127 97.127 0 019.365 24.976 77.846 77.846 0 01-.499 33.805c-3.252 14.718-9.407 28.728-16.314 42.07a333.984 333.984 0 01-5.586 10.335 1.658 1.658 0 01-2.838 0 158.109 158.109 0 00-38.905-39.609 172.514 172.514 0 00-13.323-8.65 1.662 1.662 0 01-.754-1.85 167.955 167.955 0 005.985-20.358c1.242-6.043 1.983-13.027-.805-18.774-2.371-4.887-7.116-7.828-11.727-10.347a79.113 79.113 0 00-16.901-6.897 36.688 36.688 0 00-7.558-1.4 24.255 24.255 0 00-7.259 1.03c-6.804 1.581-13.537 3.456-20.216 5.48-12.702 3.85-25.239 8.249-37.656 12.946a723.499 723.499 0 00-13.18 5.12c-2.128.853-4.243 1.826-6.405 2.605-.096.035-.188.078-.282.119a1.657 1.657 0 01-1.733-.591 1.646 1.646 0 01-.125-1.826zm17.823-7.448c12.472-4.771 25.068-9.248 37.824-13.208 6.882-2.128 13.818-4.123 20.822-5.822a45.102 45.102 0 018.59-1.704 29.945 29.945 0 017.642.886 78.286 78.286 0 0117.625 6.496c4.859 2.42 10.133 5.308 13.52 9.675 4.112 5.308 4.8 12.236 4.078 18.722a106.217 106.217 0 01-5.158 20.873c-.447 1.382-.903 2.76-1.368 4.134a168.374 168.374 0 0142.481 35.777c2.904 3.447 5.621 7.049 8.214 10.736a214.755 214.755 0 0017.591-39.201c3.809-12.1 6.122-25.086 4.098-37.744a89.78 89.78 0 00-6.898-22.644 88.492 88.492 0 00-17.419-25.74 79.371 79.371 0 00-32.293-19.861 95.208 95.208 0 00-41.203-3.3 91.672 91.672 0 00-17.636 3.859 80.938 80.938 0 00-10.67 4.667 246.703 246.703 0 00-24.765 14.901c-7.566 5.061-14.975 10.357-22.274 15.795a605.32 605.32 0 00-7.911 5.992l-.412.316-.01.009-.109.083-.737.573-1.197.931c-.52.406-1.036.812-1.554 1.22a24.205 24.205 0 01-3.014 18.358 700.765 700.765 0 0112.143-4.779z" fill="#000"/><path d="M265.789 149.343a3.983 3.983 0 01-3.96-5.454 3.987 3.987 0 011.72-1.985s29.228-18.586 45.059-24.878c32.743-13.02 86.861-37.655 118.148-27.148 34.88 11.704 22.99 57.695-9.693 57.633-54.062-.113-119.939 1.896-151.274 1.832z" fill="#F78CB6"/><path d="M265.789 151.964a6.806 6.806 0 01-5.317-2.491 6.807 6.807 0 01-1.393-5.704 7.565 7.565 0 013.841-4.568 546.848 546.848 0 0111.143-6.827c6.03-3.609 12.132-7.131 18.335-10.449a183.622 183.622 0 0118.253-8.524c6.928-2.786 13.832-5.636 20.771-8.395 7.696-3.059 15.428-6.019 23.257-8.732 7.906-2.74 15.903-5.238 24.025-7.25A146.238 146.238 0 01402.258 85a70.164 70.164 0 0120.95 1.165 38.959 38.959 0 0117.643 8.816 29.445 29.445 0 018.666 14.289 31.983 31.983 0 01-.122 16.138 34.07 34.07 0 01-7.87 14.294 32.495 32.495 0 01-14.388 8.986 34.618 34.618 0 01-9.247 1.434c-4.483.098-8.977 0-13.46.018-9.519.033-19.036.11-28.551.229-9.546.118-19.091.256-28.634.415-9.129.15-18.257.31-27.385.48-8.269.149-16.539.291-24.811.426-6.969.108-13.938.206-20.908.252-2.781.019-5.563.026-8.345.023a2.621 2.621 0 01-1.81-4.452 2.621 2.621 0 011.81-.792c13.548.027 27.098-.229 40.645-.463 17.646-.305 35.289-.645 52.941-.909 18.512-.277 37.025-.484 55.541-.467 1.743 0 3.483.027 5.22-.127.355-.032.71-.073 1.054-.112.619-.069-.617.096 0 0 .177-.027.344-.05.514-.078a31.486 31.486 0 002.181-.433 30.133 30.133 0 003.962-1.223c.195-.075 1.227-.423.427-.167.304-.113.6-.246.887-.397a30.315 30.315 0 001.846-.949 32.149 32.149 0 003.275-2.142c.14-.103.6-.376-.037.032.128-.082.247-.195.365-.289.24-.196.479-.394.71-.596.505-.437.998-.887 1.473-1.359a35.482 35.482 0 002.55-2.849c.355-.43-.363.5-.037.049.091-.124.178-.244.273-.367a27.844 27.844 0 001.596-2.401 31.063 31.063 0 001.745-3.346 3.7 3.7 0 00.178-.415c-.21.727-.105.255-.032.071.11-.279.221-.559.328-.841.227-.607.435-1.223.624-1.848.364-1.193.654-2.408.869-3.637.044-.244.081-.489.12-.736.039-.246.208-.615-.01.107.03-.147.048-.296.053-.445a29.291 29.291 0 00.02-6.54 1.954 1.954 0 00-.054-.444c.238.623.057.387.013.108a27.198 27.198 0 00-1.419-5.497 5.303 5.303 0 00-.333-.842c.438.737-.064-.14-.16-.355-.279-.6-.579-1.192-.901-1.773a20.535 20.535 0 00-2.138-3.256 34.82 34.82 0 01-.288-.341 29.277 29.277 0 00-.633-.73 26.88 26.88 0 00-1.48-1.529 28.938 28.938 0 00-1.506-1.342c-.147-.123-1.036-.812-.408-.339a39.776 39.776 0 00-.984-.723 33.025 33.025 0 00-3.901-2.354 34.582 34.582 0 00-2.082-.993c-.11-.048-.729-.303-.1-.046l-.553-.225a42.954 42.954 0 00-5.809-1.828 48.846 48.846 0 00-4.46-.848c-.135-.02-.798-.105-.068-.012l-.578-.073a65.092 65.092 0 00-3.736-.334 80.378 80.378 0 00-10.395.098 100.52 100.52 0 00-5.457.532l-.665.083c-.094.013-.839.11-.192.023-.446.06-.886.125-1.34.188-.977.145-1.952.299-2.926.463a194.028 194.028 0 00-23.263 5.586c-15.382 4.602-30.34 10.498-45.207 16.53a7686.81 7686.81 0 00-9.958 4.043c-1.542.623-3.086 1.242-4.63 1.858-.312.124-.622.248-.933.376l-.462.192c-.554.23.558-.242 0 0-.71.305-1.408.613-2.107.931-6.184 2.81-12.169 6.066-18.079 9.398a516.282 516.282 0 00-16.381 9.653 616.43 616.43 0 00-5.025 3.105l-1.291.812-.28.177-.052.032a2.177 2.177 0 01-.177.106c-.237.167-.214.144.067-.07-.094.078-.177.159-.269.246-.153.151-.366.56-.041 0-.083.144-.177.289-.259.429-.277.447.074-.532.016-.025-.011.1-.158.373-.114.467l.054-.383a3.049 3.049 0 00-.016.315c.028.355-.178.43-.048-.067-.03.117.078.355.101.463l.044.152c.096.263.066.201-.09-.177 0 .122.168.316.223.422l.087.137c.16.224.12.176-.119-.146.022.11.266.275.341.355.374.404-.495-.27 0 0 .14.098.29.183.447.252-.018.019-.568-.178.033 0 .178.053.355.087.545.122-.694-.138-.076-.034.088-.03a2.622 2.622 0 110 5.244l.02.005z" fill="#F78CB6"/><path d="M385.168 92.226a64.243 64.243 0 0131.521-2.279 4.937 4.937 0 013.435 6.047 5.058 5.058 0 01-6.047 3.433 13.85 13.85 0 00-1.575-.255h-.06c-.355-.04-.709-.082-1.054-.119a58.293 58.293 0 00-12.294.032c-.275.028-.552.066-.828.096-1.179.19-2.355.377-3.526.62a59.34 59.34 0 00-6.958 1.91 4.95 4.95 0 01-6.047-3.433 5.03 5.03 0 013.433-6.052z" fill="#FFD2D9"/><path d="M419.817 160.474a5.002 5.002 0 014.916 4.916v.578a4.915 4.915 0 11-9.832 0v-.578a4.963 4.963 0 014.916-4.916zm-78.216 35.098a137.174 137.174 0 003.378-4.011c.339-.421.67-.843 1.005-1.265l.119-.147.1-.133a123.654 123.654 0 007.391-10.824 123.762 123.762 0 007.292-13.933c.189-.43.376-.862.565-1.293l.075-.177.058-.142c.355-.873.71-1.744 1.052-2.621a5.038 5.038 0 016.04-3.426c2.32.75 4.433 3.481 3.433 6.047a132.53 132.53 0 01-9.156 18.857 268.465 268.465 0 0124.955-7.802 4.914 4.914 0 015.983 3.451 4.92 4.92 0 01-3.369 6.029 265.615 265.615 0 00-28.296 9.078c10.5.792 20.899 3.589 31.034 6.483a4.927 4.927 0 013.029 2.298 4.907 4.907 0 01.485 3.77 4.912 4.912 0 01-4.195 3.581 4.92 4.92 0 01-1.931-.169 198.449 198.449 0 00-22.912-5.534c-.436-.069-.874-.136-1.312-.203l-.532-.074-.126-.016c-.949-.101-1.894-.222-2.837-.307a68.244 68.244 0 00-5.675-.292 59.499 59.499 0 00-5.675.207c-.58.05-1.159.115-1.739.177l-.197.02-.233.037a67.393 67.393 0 00-3.028.553 5.046 5.046 0 01-5.553-2.259 5.133 5.133 0 01.772-5.96zm62.703-29.125a5.003 5.003 0 014.918 4.917v.578a4.917 4.917 0 01-9.834 0v-.578a4.966 4.966 0 014.916-4.917z" fill="#fff"/></svg>