<svg width="250" height="250" fill="none" xmlns="http://www.w3.org/2000/svg"><g opacity=".8"><path d="M104.534 171.038a8.037 8.037 0 00-5.059-3.56 4.741 4.741 0 00-1.667-.18c-4.879-.023-4-6.805-5.853-9.792a13.25 13.25 0 00-10.864-6.25 11.546 11.546 0 00-5.834 1.708c-2.13 1.258-4.054 1.389-6.023-.306-3.549-3.055-7.077-5.325-11.916-5.625a17.295 17.295 0 00-12.425 4.474 20.267 20.267 0 00-4.394 5.545c-1.152 2.141-2.269 4.256-4.806 2.314-3.849-2.947-8.125-4.132-12.852-2.374a16.713 16.713 0 00-9.287 9.106 25.708 25.708 0 00-1.614 6.317c-.465 2.822-1.642 3.424-3.987 4.75-4 2.259-4.44 7.401-3.135 11.417 1.189 3.655 4.334 7.046 8.48 6.536 2.12-.26 3.604-1.05 5.326.733 1.723 1.782 3.053 3.658 5.157 5.1 7.632 5.23 17.617 4.369 25.66.574 4.576-2.158 8.306-5.298 12.133-8.527 4.398-3.708 6.901 2.5 10.25 4.599a13.686 13.686 0 0013.228.833 14.913 14.913 0 005.166-4.235c1.264-1.622 1.863-4.202 3.655-5.318 1.667-1.042 3.78-.428 5.58-1.25a11.297 11.297 0 004.795-4.757c2.077-3.578 2.618-8.238.286-11.832zm-6.566 16.158c-2.226.532-4.194-.023-5.844 2.015-1.65 2.037-2.312 4.436-4.337 6.265a12.682 12.682 0 01-12.347 2.798 14.171 14.171 0 01-5.6-3.416c-1.57-1.555-2.474-3.77-4.93-4.027-2.267-.238-3.702 1.287-5.25 2.672a47.74 47.74 0 01-5.954 4.556 35.756 35.756 0 01-12.77 5.293c-4.68.939-9.537.385-13.886-1.584a19.432 19.432 0 01-5.572-3.936c-1.5-1.526-2.47-3.719-4.791-4.116-2.137-.365-3.94.939-6.137.189a7.778 7.778 0 01-4.398-4.37c-1.544-3.432-1.842-8.907 1.702-11.257 1.973-1.309 3.917-1.652 4.693-4.22.704-2.345.7-4.77 1.642-7.089a16.03 16.03 0 018.97-9.117 11.879 11.879 0 016.953-.507c2.488.611 3.844 2.378 6 3.43 2.018.986 3.63-.258 4.545-1.98a23.286 23.286 0 014.182-5.982 16.464 16.464 0 0112.278-4.871c2.26.123 4.471.699 6.504 1.695 2.333 1.141 3.796 3.127 5.935 4.448 2.333 1.439 4.287.7 6.465-.51a10.346 10.346 0 016.473-1.3 12.203 12.203 0 019.79 8.181c.686 2.221.395 4.75 2.242 6.446a4.453 4.453 0 002.623 1.265c.209.037.42.051.632.041.613.123 1.234.205 1.858.245 3.684 1 5.708 4.955 5.536 8.577-.188 3.959-3.083 9.18-7.207 10.166z" fill="#B5E6D2"/><path d="M119.988 120.485c-.188-1.667-.373-3.327-.575-4.988a590.064 590.064 0 00-2.334-17.055c-.066-.437-.73-.25-.666.183a576.256 576.256 0 012.7 20.285c.257.543.55 1.07.875 1.575z" fill="#000"/><path d="M121.612 125.482a12.995 12.995 0 00-1.9-6.261 7.824 7.824 0 00-6.391-3.722c-3.315.039-6.053 2.609-9.274 3.393-1.884.458-4.026.347-5.526 1.575-.646.527-1.11 1.487-.651 2.183a1.826 1.826 0 001.73.6 7.52 7.52 0 011.917-.147.483.483 0 01.364.194c.156.272-.198.544-.484.667a10.1 10.1 0 00-2.533 1.611 1.666 1.666 0 00-.75 1.374c.093.641.843.98 1.49.963.646-.018 1.27-.269 1.916-.284a.572.572 0 01.514.189c.128.196 0 .46-.148.64-.569.505-1.169.975-1.797 1.405-.56.516-.894 1.469-.362 2.015.491.506 1.333.306 1.986.038.925-.381 1.815-.833 2.699-1.306-.028.25-.05.506-.064.759a11.342 11.342 0 001.123 6.031c1.976 3.643 6.456 4.428 10.239 3.902a9.6 9.6 0 005.277-2.343 8.447 8.447 0 002.5-5.095c.073-.546.111-1.097.112-1.648a12.177 12.177 0 00-1.987-6.733zm-.466 11.937a7.66 7.66 0 01-4.183 2.698 12.81 12.81 0 01-5.946.166 7.064 7.064 0 01-4.145-2.406 8.504 8.504 0 01-1.61-4.874 12.542 12.542 0 011.018-5.901 8.248 8.248 0 013.602-3.916 8.769 8.769 0 015.817-.698c3.917.842 6.417 4.317 6.886 8.167.062.52.092 1.042.092 1.566a8.67 8.67 0 01-1.531 5.196v.002z" fill="#F97580"/><path d="M152.473 122.507c28.621 0 51.823-21.023 51.823-46.956 0-25.933-23.202-46.956-51.823-46.956-28.62 0-51.822 21.023-51.822 46.956 0 25.933 23.202 46.956 51.822 46.956z" fill="#FA8DB8" fill-opacity=".81"/><path d="M109.608 133.332a.844.844 0 10-.002-1.688.844.844 0 00.002 1.688z" fill="#000"/><path d="M145.953 143.183a13.723 13.723 0 00-1.805 1.77 53.168 53.168 0 01-4.67 5.134 11.582 11.582 0 01-6.115 3.066 11.109 11.109 0 01-7.063-1.822c-2.109-1.303-3.775-3.188-5.655-4.803-1.098-.945-3.655-.683-4.443.533a6.049 6.049 0 00-.569 4.21c.942 6.092 5.638 11.333 11.457 13.371a20.663 20.663 0 0017.709-2.357 19.715 19.715 0 005.019-4.654 37.314 37.314 0 01-3.865-14.448z" fill="#B7E9D4"/><path d="M119.257 131.914a.843.843 0 100-1.686.843.843 0 000 1.686z" fill="#000"/><path d="M118.927 134.167a7.087 7.087 0 01-.917 3.326 3.362 3.362 0 01-2.522 1.47 4.01 4.01 0 01-2.482-.887 7.662 7.662 0 01-2.185-3.04c2.729.498 5.544.196 8.106-.869z" fill="#F97580"/><path d="M107.899 131.179a1.756 1.756 0 012.094-1.072c.43.106.614-.558.183-.667a2.464 2.464 0 00-2.941 1.553c-.158.417.507.594.667.184l-.003.002zm10.128-2.164a2.168 2.168 0 011.916.527c.327.3.815-.186.487-.486a2.888 2.888 0 00-2.583-.705c-.434.091-.25.755.183.666l-.003-.002z" fill="#000"/><path d="M115.352 175.787l29.576 1.988c-.62-2.796-1.515-5.667-3.522-7.707-2.24-2.281-5.542-3.188-8.727-3.46a33.923 33.923 0 00-13.512 1.777 13.497 13.497 0 00-4.429 2.216 5.791 5.791 0 00-2.257 4.264c.01.384.093.762.245 1.115a9.648 9.648 0 012.626-.193z" fill="#F97580"/><path d="M87.704 121.8c-.257-.631-.743-3.527-1.063-4.147a1.064 1.064 0 00-.986-.54 1.074 1.074 0 00-.922.64c-.197.406-.21 2.955-.598 3.175a4.107 4.107 0 01-3.54-.056c-1.417-.584-2.652-1.565-4.167-1.926a2.054 2.054 0 00-1.548.213c-1.09.673-.833 1.883-.285 2.731 2.374 3.693 8.77 3 10.922 6.829.436.776.637 1.661 1 2.474a3.046 3.046 0 001.826 1.825c.86.224 3.947.004-.639-11.218z" fill="#FCAFB7"/><path d="M191.187 100.382a222.93 222.93 0 00-29.354 43.267 223.553 223.553 0 00-7.408 15.75 220.211 220.211 0 00-6.825 18.342c-.133.411.521.588.653.178a220.716 220.716 0 015.981-16.317 218.619 218.619 0 017.25-15.786 221.11 221.11 0 018.435-15.14 224.325 224.325 0 019.591-14.449 221.348 221.348 0 0112.162-15.371c.282-.326-.195-.804-.48-.474h-.005z" fill="#000"/><path d="M155.75 143.031c-.208-1.573-.686-3.333-2.152-3.861-1.199-.428-2.825.093-3.596-.917-.493-.645-.512-1.802-1.314-1.929a1.024 1.024 0 00-1.039.812c-.086.475-.072.962.04 1.432.092.616.139 1.238.143 1.861a.735.735 0 00-.25.699.897.897 0 00.209.41 14.567 14.567 0 01-4.393 9.376 2.43 2.43 0 00-.357 3.114c.489.731 1.039 1.318 1.735 1.18a3.453 3.453 0 001.722-1.167 25.156 25.156 0 002.691-3.405 5.744 5.744 0 011.344-1.592 6.329 6.329 0 003.054-.828 4.738 4.738 0 002.304-3.591 4.63 4.63 0 00-.141-1.594z" fill="#FCAFB7"/><path d="M155.5 141.538a3.657 3.657 0 00-1.333-1.276 5.562 5.562 0 00-1.909-.508 16.803 16.803 0 00-2.051-.184 5.61 5.61 0 00-1.882.189 1.51 1.51 0 00-1.071.979 1.302 1.302 0 00.556 1.3 5.971 5.971 0 001.909.86l.025.006c-.206.051-.416.105-.615.167-.688.221-1.639.526-1.848 1.321-.209.796.552 1.22 1.174 1.457.429.162.869.295 1.316.398-.175.062-.353.115-.525.188a3.04 3.04 0 00-1.509.987 1.17 1.17 0 00.309 1.446 2.74 2.74 0 001.762.508c2.576.13 5.22-.973 6.158-3.526a5.105 5.105 0 00-.466-4.312zm-.275 4.334a4.604 4.604 0 01-2.596 2.43 6.54 6.54 0 01-2.104.4 3.465 3.465 0 01-1.922-.26c-.86-.596.292-1.096.78-1.314a9.192 9.192 0 012.09-.629c.406-.074.27-.645-.092-.676a9.976 9.976 0 01-2.097-.409c-.401-.124-1.728-.422-1.207-1.058a3.505 3.505 0 011.8-.775 9.187 9.187 0 012.101-.264.342.342 0 00.328-.344.344.344 0 00-.328-.345 8.844 8.844 0 01-3.401-.916c-.319-.167-.869-.536-.584-.959.235-.347.8-.421 1.177-.46a12.463 12.463 0 013.186.167 3.302 3.302 0 012.55 1.425 4.388 4.388 0 01.317 3.983l.002.004zm-21.008-39.848a465.886 465.886 0 01-1.249 70.744c-.04.431.648.428.689 0a469.333 469.333 0 001.771-27.675 466.727 466.727 0 00-.522-43.071c-.026-.43-.714-.433-.689 0v.002zm13.073 43.266a384.177 384.177 0 00-3.676 11.212 384.713 384.713 0 00-4.727 16.61.312.312 0 00.221.383.316.316 0 00.386-.217 380.99 380.99 0 014.158-14.75 362.324 362.324 0 014.181-12.901 2.048 2.048 0 01-.543-.337z" fill="#000"/><path d="M167.288 101.435a400.065 400.065 0 00-6.775 14.333 397.876 397.876 0 00-6.142 14.461 402.806 402.806 0 00-3.577 9.284c.208.046.417.091.626.131a395.832 395.832 0 018.898-21.861 396.902 396.902 0 017.531-16.03c.182-.364-.378-.685-.561-.318zm-21.871 19.576c-.309 2.95-.745 5.886-1.188 8.818a696.52 696.52 0 01-1.922 11.943c-.73 4.349-1.48 8.695-2.25 13.037a2016.78 2016.78 0 01-2.185 12.137c-.562 3.072-1.133 6.143-1.713 9.213l-.162.855c-.084.432.579.617.661.183.56-2.931 1.107-5.864 1.643-8.8a1868.428 1868.428 0 004.424-24.988 817.293 817.293 0 001.979-12.167c.48-3.115.948-6.235 1.305-9.366.033-.289.065-.577.095-.865.046-.439-.641-.436-.686 0h-.001z" fill="#000"/><path d="M230.005 97.233a11.483 11.483 0 00-3.143-4.922c-1.532-1.413-3.191-2.339-3.911-4.411-.733-2.108 0-4.333-.569-6.49a9.082 9.082 0 00-3.54-5.1 10.78 10.78 0 00-11.036-.487c-1.731.917-3 2.266-5.079 2.382-2.264.127-4.024-1.26-5.976-2.178a26.168 26.168 0 00-26.235 2.201 27.3 27.3 0 00-8.3 9.607c-.88 1.708-1.271 3.83-2.567 5.284-1.666 1.875-4.224 1.661-6.341 2.706a9.431 9.431 0 00-5.083 10.383c.345 1.939.722 3.635-.046 5.558-.76 1.902-2.465 3.237-3.385 5.073a10.46 10.46 0 00.86 10.99c2.702 3.678 6.733 4.527 11 3.743 5.232-.962 5.943 4.043 8.994 6.979a14.807 14.807 0 0011.35 3.959A17.673 17.673 0 00187.54 138a19.808 19.808 0 003.87-4.767c1.014-1.73 1.524-3.75 3.583-4.507 2.19-.811 4.417.583 6.646.623a11.9 11.9 0 006.464-1.878 15.53 15.53 0 004.899-5.03c1.244-2.006 1.696-4.194 2.628-6.316 2.167-4.928 7.77-2.843 11.21-6.237a12.994 12.994 0 003.165-12.656zm-.878 6.74a11.695 11.695 0 01-3.115 5.426c-1.733 1.625-3.333 1.759-5.557 2.055-4.963.667-5.436 4.744-7.18 8.534-1.634 3.548-4.526 6.788-8.341 7.981a10.333 10.333 0 01-5.928.027c-2.097-.564-4.167-.734-5.935.803-1.5 1.3-2.094 3.519-3.197 5.141a18.193 18.193 0 01-4.452 4.604 16.35 16.35 0 01-11.926 2.912 13.593 13.593 0 01-9.097-5.816c-1.116-1.667-1.702-3.518-3.583-4.504-1.995-1.044-3.717-.457-5.788-.162a9.285 9.285 0 01-9.35-4.801c-2.071-3.734-1.136-7.926 1.388-11.167 1.155-1.485 2.142-2.739 2.44-4.667.354-2.296-.676-4.409-.544-6.691.265-4.601 3.71-6.862 7.754-7.882 4.558-1.15 4.971-5.34 7.083-8.874a26.389 26.389 0 017.712-8.22 25.279 25.279 0 0124.598-1.957c2.077.943 3.859 2.403 6.243 2.412 2.715.012 4.207-1.761 6.507-2.797 4.054-1.826 9.26-.81 11.678 3.095 1.288 2.083 1.128 4.012 1.148 6.328a7.644 7.644 0 002.932 5.917c3.825 3.247 5.96 7.14 4.51 12.303z" fill="#B5E6D2"/><path d="M202.471 147.979a25.253 25.253 0 00-3.372 14.22 63.335 63.335 0 00-8.691-9.436c-.662-.583-1.64.386-.975.975a62.053 62.053 0 0110.034 11.31.697.697 0 00.856.271.695.695 0 00.403-.802 23.8 23.8 0 012.934-15.843.691.691 0 00-.26-.92.69.69 0 00-.929.225zm21.181-5.387a.704.704 0 00-.847.481l-2.014 5.334a8.615 8.615 0 01-1.443-2.471.707.707 0 00-.847-.481.695.695 0 00-.481.847 10.293 10.293 0 002.533 3.874.704.704 0 00.968-.003.695.695 0 00.183-.301l2.429-6.432a.697.697 0 00-.481-.848zm-10.2 30.314a16.136 16.136 0 00-1.392 3.991l-2.975-5.583c-.417-.782-1.606-.083-1.189.695l3.932 7.38a.69.69 0 00.336.279.69.69 0 00.799-.216.695.695 0 00.149-.41 14.421 14.421 0 011.53-5.442c.401-.788-.787-1.485-1.19-.694zm-2.294-64.472a11.74 11.74 0 00-2.921 4.232 16.829 16.829 0 01-2.069-3.556.69.69 0 00-.941-.25.71.71 0 00-.25.942 17.72 17.72 0 003.012 4.735.704.704 0 00.661.174.698.698 0 00.49-.478 10.421 10.421 0 012.989-4.828c.656-.598-.32-1.572-.971-.971zM172.41 164.66a.695.695 0 00-.974 0 9.378 9.378 0 00-1.834 3.568 6.05 6.05 0 01-1.533-2.016.695.695 0 00-.942-.25.704.704 0 00-.25.941 7.248 7.248 0 002.831 3.097.703.703 0 00.606.041.685.685 0 00.255-.18.68.68 0 00.151-.273 7.956 7.956 0 011.69-3.954.71.71 0 000-.974zm12.007-102.382a.704.704 0 00-.848.481l-2.013 5.334a8.57 8.57 0 01-1.443-2.471.708.708 0 00-.847-.481.693.693 0 00-.481.847 10.282 10.282 0 002.533 3.874.694.694 0 00.66.17.696.696 0 00.49-.474l2.43-6.431a.696.696 0 00-.481-.849zm-11.39-14.39a.701.701 0 00-.846.481l-4.028 10.667a16.336 16.336 0 01-3.371-5.447.708.708 0 00-.847-.48.696.696 0 00-.481.846 17.941 17.941 0 004.474 6.815.695.695 0 00.967-.003.692.692 0 00.183-.301l4.431-11.73a.695.695 0 00-.482-.848zm-10.855 133.351a9.873 9.873 0 00-1.303-1.139.4.4 0 00-.184-.135 10.223 10.223 0 00-5.124-1.82l-3.882-.261-9.363-.629-11.426-.768-10.068-.676-5.281-.355a10.206 10.206 0 00-10.046 5.977c-.985 2.25-.929 4.821-1.092 7.23l-.732 10.902-.542 8.059a10.582 10.582 0 00.651 4.678 10.2 10.2 0 005.068 5.432c1.912.903 3.91.964 5.963 1.103l8.321.559 11.279.758 10.674.718 6.768.454c.546.037 1.094.083 1.642.078a10.09 10.09 0 009.897-9.417c.046-.643.084-1.286.13-1.929l.675-10.046.65-9.666c.046-.691.117-1.388.123-2.084a10.128 10.128 0 00-2.798-7.023zm-44.275-4.937l8.349.561 11.065.744 10.568.71 6.743.454.939.063a9.422 9.422 0 014.423 1.494 193.57 193.57 0 01-20.597 15.351 183.14 183.14 0 01-6.084 3.77 270.126 270.126 0 01-18.199-17.167 240.384 240.384 0 01-4.763-5.071 9.332 9.332 0 012.062-.812 17.34 17.34 0 015.494-.097zm-13.834 27.667l.723-10.75.537-7.974a10.027 10.027 0 011.201-4.333 9.512 9.512 0 013.204-3.353 264.895 264.895 0 0014.241 14.417 203.998 203.998 0 00-16.183 12.146 211.719 211.719 0 00-3.957 3.389c0-.06 0-.12.009-.181l.225-3.36v-.001zm55.104 14.713a9.457 9.457 0 01-6.48 2.012c-1.383-.087-2.765-.187-4.149-.279l-9.314-.626-11.235-.755-9.917-.667-5.344-.359a9.721 9.721 0 01-4.115-1.166 9.502 9.502 0 01-4.547-5.856 9.633 9.633 0 01-.275-2.559.404.404 0 00.092-.054 201.4 201.4 0 0120.538-15.87.37.37 0 00.056-.056c1.05.981 2.096 1.965 3.166 2.93 1.77 1.602 3.562 3.18 5.375 4.733a.338.338 0 00.284.083.308.308 0 00.18-.045 190.919 190.919 0 009.21-5.833l.005.007c5.561 3.792 10.491 8.416 15.471 12.922a441.666 441.666 0 004.578 4.083c-.018.244-.031.487-.049.73a9.437 9.437 0 01-3.53 6.625zm5.09-29.828c-.133 2.121-.285 4.24-.428 6.361l-.737 10.978-.287 4.254c-5.12-4.505-10.033-9.263-15.383-13.5a79.75 79.75 0 00-4.118-3.05 196.314 196.314 0 0011.794-8.654 183.714 183.714 0 005.46-4.504 9.273 9.273 0 013.699 8.115zM59.553 216.461l9.734-1.065a.708.708 0 00.688-.689.692.692 0 00-.688-.688l-9.734 1.064a.713.713 0 00-.688.689.692.692 0 00.688.689zm-21.036-35.078l16.596-1.262c.879-.067.886-1.444 0-1.377l-16.596 1.262c-.877.066-.885 1.444 0 1.377zm17.009-15.273l16.197-.262a.686.686 0 00.665-.688.688.688 0 00-.665-.689l-16.197.262a.687.687 0 00-.655.689.688.688 0 00.655.688zm-23.888-40.963l7.288-.405c.88-.049.886-1.426 0-1.377l-7.288.405c-.881.048-.887 1.426 0 1.377zM58.772 97.29l12.55-1.215a.707.707 0 00.689-.688.693.693 0 00-.688-.689l-12.551 1.214a.708.708 0 00-.69.688.694.694 0 00.69.69z" fill="#000"/><path d="M130.545 164.738A52.726 52.726 0 00128 153.25c-1.36-4.159-4.25-8.241-8.512-9.217a11.056 11.056 0 00-8.594 2.04c.05.031.101.058.15.09a4.871 4.871 0 011.86 2.13c.797 1.875.084 3.584-1.061 5.075a6.369 6.369 0 01-3.959 2.392c-1.75.306-3.534.575-5.301.704a41.63 41.63 0 01-3.704 5.29c-1.377 1.61-2.97 3.041-4.199 4.768a8.072 8.072 0 00-1.71 5.948c.487 2.702 2.996 4.709 5.676 5.303 2.68.593 5.483.014 8.083-.863 2.6-.877 5.108-2.05 7.776-2.693 4.438-1.071 9.196-.644 13.255-3.322a7.152 7.152 0 002.785-6.157z" fill="#B7E9D4"/><path d="M112.296 148.405a4.524 4.524 0 00-1.728-1.978c-2.541-1.657-5.661-1.313-8.333-2.446-2.716-1.153-4.607-3.689-5.883-6.349-1.277-2.659-2.07-5.53-3.362-8.182a11.635 11.635 0 00-1.62-2.547c-.452.276-.894.571-1.342.857 1.374 5.943-.916 6.054-1.686 5.853a3.532 3.532 0 01-2.13-2.128 12.272 12.272 0 01-.341-.865 49.567 49.567 0 00-4.716 4.009c.33 2.103.875 4.167 1.627 6.159 1.654 4.855 3.592 10.063 7.897 12.851 2.834 1.834 6.323 2.343 9.698 2.428a37.373 37.373 0 007.255-.729 5.913 5.913 0 003.676-2.221c1.067-1.386 1.728-2.971.988-4.712z" fill="#B7E9D4"/><path d="M129.005 117.175c.223 3.265.36 6.536.478 9.807.15 4.152.263 8.306.339 12.46.089 4.477.15 8.953.182 13.43.03 4.222.03 8.447 0 12.676-.028 3.401-.076 6.803-.202 10.203-.012.343-.026.685-.04 1.027-.02.444.666.443.688 0 .14-3.269.194-6.542.229-9.815.044-4.155.052-8.31.023-12.465-.024-4.477-.078-8.954-.16-13.43a909.15 909.15 0 00-.322-12.671c-.114-3.4-.25-6.8-.46-10.195-.022-.343-.044-.685-.068-1.027-.03-.44-.719-.443-.688 0h.001zm-9.662-49.322a.459.459 0 000 .917.46.46 0 000-.917zm5.938 10.797a.46.46 0 000 .917.46.46 0 00.431-.459.46.46 0 00-.431-.458zm17.004-11.606a.461.461 0 00-.432.458.46.46 0 00.432.459.461.461 0 00.432-.459.46.46 0 00-.432-.458zm4.588 20.243a.459.459 0 000 .916.459.459 0 000-.916zm6.479-11.067a.46.46 0 000 .918.459.459 0 000-.917zm11.065-5.668a.459.459 0 000 .917.459.459 0 000-.916zm-13.225-17.004a.459.459 0 000 .917.459.459 0 000-.917zm-15.654 3.78a.46.46 0 000 .916.459.459 0 000-.916zm12.685-22.403a.46.46 0 000 .917.459.459 0 000-.917zm13.495 4.318a.459.459 0 000 .917.46.46 0 000-.917zm-25.101 8.367a.459.459 0 000 .918.459.459 0 000-.917zm38.867 36.978a.457.457 0 00-.431.458.456.456 0 00.431.458.46.46 0 000-.916zm-4.049 16.735a.461.461 0 00-.432.458.462.462 0 00.432.458.461.461 0 00.432-.458.46.46 0 00-.432-.458zm-13.225-.271a.46.46 0 000 .917.461.461 0 00.432-.458.46.46 0 00-.432-.459zM135 95.384a.461.461 0 00-.432.459.46.46 0 00.432.458.461.461 0 00.432-.459.46.46 0 00-.432-.458zm-19.436 3.783a.457.457 0 00-.431.458.456.456 0 00.431.458.458.458 0 000-.916zm-2.159-9.451a.461.461 0 00-.432.458.46.46 0 00.432.458.46.46 0 00.432-.458.46.46 0 00-.432-.458zm-27.531-1.079a.459.459 0 000 .916.46.46 0 000-.916zm-8.367-24.832a.46.46 0 000 .917.459.459 0 000-.917zM59.963 77.03a.459.459 0 000 .918.46.46 0 000-.917zM32.432 90.796a.459.459 0 000 .916.46.46 0 000-.916zm-2.699-25.911a.46.46 0 000 .917.46.46 0 000-.917zm18.894 1.889a.459.459 0 000 .917.46.46 0 000-.917zm14.305-23.482a.46.46 0 000 .916.459.459 0 000-.916zM21.637 80.81a.459.459 0 000 .916.46.46 0 000-.917zm75.303 28.07a.457.457 0 00-.307.773.46.46 0 00.308.144.46.46 0 000-.917zm95.548 2.159a.455.455 0 00-.306.144.456.456 0 000 .629.46.46 0 00.306.144.46.46 0 000-.917zm18.894-24.289a.459.459 0 000 .917.459.459 0 000-.917zM226.5 61.376a.461.461 0 00-.432.458.46.46 0 00.432.458.46.46 0 00.432-.458.46.46 0 00-.432-.458zm18.89 27.801a.461.461 0 00-.432.458.46.46 0 00.432.458.46.46 0 00.432-.458.46.46 0 00-.432-.458zm-5.938 8.096a.46.46 0 000 .917.459.459 0 000-.917zm-4.049-18.083a.459.459 0 000 .917.459.459 0 000-.917zm-48.043 8.907a.46.46 0 00-.432.458.46.46 0 00.432.458.461.461 0 00.432-.458.46.46 0 00-.432-.458z" fill="#000"/></g></svg>