<svg width="587" height="587" fill="none" xmlns="http://www.w3.org/2000/svg"><path d="M293.664 55.978a4.29 4.29 0 00-4.445 2.08 60.194 60.194 0 01-3.902 4.974 22.32 22.32 0 01-5.167 4.044c-1.957 1.092-4.544 2.12-6.639.797a2.903 2.903 0 01-1.425-2.456 3.122 3.122 0 00-.886-2.573 1.669 1.669 0 00-2.035-.14c-.83.63-.753 1.923-.867 2.852a18.469 18.469 0 00.814 6.849 18.36 18.36 0 01.828 4.077 13.88 13.88 0 01-.251 1.937 20.673 20.673 0 01-.371 2.24 42.411 42.411 0 01-2.953 7.956c-.182.404-.078 1.051.464 1.137l7.085 1.12a.809.809 0 00.953-.54 19.005 19.005 0 014.044-6.68 11.384 11.384 0 012.859-1.89 47 47 0 013.913-1.856 18.027 18.027 0 0010.455-10.536 17.523 17.523 0 00.587-9.244 5.216 5.216 0 00-3.061-4.148zm-3.226 19.26a22.919 22.919 0 01-6.721 3.84 18.327 18.327 0 00-6.084 3.68 20.427 20.427 0 00-3.978 6.52l-5.508-.868a49.752 49.752 0 002.153-5.42 22.74 22.74 0 00.771-3.205c.204-.978.346-1.968.426-2.964a28.675 28.675 0 00-1.344-6.731c-.28-1.06-.432-2.15-.454-3.246.016-.533.131-1.08.196-1.609.041-.342-.032-1.383.373-1.144.499.293.282 2.042.449 2.592a4.43 4.43 0 001.453 2.115 6.05 6.05 0 005.146 1.07 19.75 19.75 0 0010.005-6.722 32.256 32.256 0 002.037-2.605 13.636 13.636 0 011.917-2.451c2.057-1.842 3.536.561 3.962 2.455a15.769 15.769 0 01-4.799 14.693zm15.44-11.018a29.385 29.385 0 01-8.308 17.072.78.78 0 00.075 1.019.78.78 0 001.019.076 31.068 31.068 0 008.762-18.167c.119-.988-1.431-.98-1.548 0zm3.69 14.17a29.102 29.102 0 01-9.437 8.218c-.873.48-.092 1.818.783 1.336a30.843 30.843 0 009.991-8.775c.596-.799-.752-1.573-1.337-.779zM208.884 231.327a59.672 59.672 0 00-1.393-3.36 67.49 67.49 0 00-3.411-6.668 68.878 68.878 0 00-8.836-11.936c-2.708-2.935-7.107-6.871-11.382-4.541-3.858 2.103-.233 7.144-.301 10.202.068 5.06-1.09 9.989-1.419 15.017a28.723 28.723 0 001.808 12.985c1.579 3.766 4.639 7.584 8.805 8.531 4.166.947 7.304-1.92 8.596-5.655 1.461-4.228.297-8.779 1.025-13.076a4.695 4.695 0 002.235 2.565 3.02 3.02 0 004.277-4.068l-.004.004zm-2.653 2.87c-2.174.024-2.777-2.714-3.164-4.369-.196-.818-1.231-.644-1.493 0-1.761 4.289-.458 8.836-1.131 13.266-.515 3.395-2.544 7.5-6.59 7.091-4.129-.418-7.21-4.481-8.621-8.059a27.603 27.603 0 01-1.566-11.74c.298-5.142 1.511-10.175 1.441-15.348a13.606 13.606 0 00-.856-4.084 6.507 6.507 0 01-.463-3.88c.638-1.612 3.087-1.495 4.424-1.076a11.741 11.741 0 014.641 3.117 66.298 66.298 0 0113.558 20.216c.548 1.065.98 2.186 1.287 3.344.182.996-.536 1.511-1.465 1.522h-.002zm-144.966 56.92l-3.475-13.801c-1.158-4.594-2.201-9.237-3.477-13.8-.391-1.399-1.735-2.319-3.005-1.162-1.532 1.393-.137 3.557-1.153 5.189-2.426 3.892-8.106 1.542-11.168-.139a27.497 27.497 0 01-4.808-3.371c-1.454-1.266-2.692-2.703-4.015-4.096a5.8 5.8 0 00-4.487-2.311 4.017 4.017 0 00-3.177 2.503 15.57 15.57 0 00.328 10.973 19.662 19.662 0 0012.216 12.057 67.118 67.118 0 016.962 2.231 12.45 12.45 0 016.91 9.284.78.78 0 00.953.54l10.854-3.148a.713.713 0 00.423-.323l.027-.035a.604.604 0 00.04-.096.715.715 0 00.052-.495zM50.251 293.5a13.908 13.908 0 00-4.56-7.559c-2.973-2.504-6.671-3.046-10.236-4.269a18.195 18.195 0 01-12.192-17.174 7.021 7.021 0 011.19-4.592c1.352-1.548 3.185-.307 4.314.822 1.284 1.281 2.418 2.684 3.763 3.913a30.867 30.867 0 004.148 3.199c3 1.922 6.926 3.843 10.583 3.239a6.164 6.164 0 004.013-2.429 4.69 4.69 0 00.846-2.031 5.6 5.6 0 00.017-1.281c-.039-.474-.26-1.268.073-1.681.489-.611.602.254.698.628.149.587.294 1.164.44 1.747l.924 3.669 1.804 7.161c1.174 4.644 2.343 9.288 3.508 13.932l-9.333 2.706zM225.435 86.428c-2.651-12.035-.047-25.742-7.044-35.885-5.723-8.297-16.942-11.74-26.831-9.784-9.889 1.957-18.409 8.527-24.476 16.571-6.068 8.044-6.99 16.984-12.181 25.633-2.277 3.788-8.402 9.255-9.497 14.915a17.5 17.5 0 004.606 15.924c4.146 3.899 10.11 5.017 15.722 5.968 16.349 2.768 33.592 5.465 49.151-.274 5.555-2.049 11.079-5.549 13.159-11.095 2.633-7.032-.994-14.645-2.609-21.973zm-39.587 18.422c-.1.978-1.649.992-1.55 0a72.582 72.582 0 00-1.297-22.586c.073-.053.161-.08.231-.135a20.33 20.33 0 001.761 2.135 73.732 73.732 0 01.855 20.586zm19.772 2.375c-.293.951-1.788.542-1.495-.412a60.718 60.718 0 002.63-17.002 24.616 24.616 0 001.589-.558 62.306 62.306 0 01-2.724 17.972zm13.501-31.893a15.154 15.154 0 01-5.048 8.678 20.842 20.842 0 01-20.263 4.253 19.315 19.315 0 01-9.784-7.705.788.788 0 00-.917-.338.792.792 0 00-.298.181 4.346 4.346 0 01-5.686.615 6.466 6.466 0 01-1.926-2.358 6.466 6.466 0 01-.631-2.978 5.3 5.3 0 015.754-3.77.785.785 0 00.95-.552.78.78 0 00.003-.401c-.121-.603-.195-1.215-.272-1.826 7.193-3.209 14.329-7.17 19.029-13.65 1.634 1.53 3.307 3.05 5.05 4.444a17.344 17.344 0 006.08 3.336c2.621.686 5.351.858 8.038.505a35.515 35.515 0 01-.087 11.566h.008z" fill="#000"/><path d="M193.565 68.679a6.725 6.725 0 00-7.803 3.954c-.391.92 1.113 1.32 1.493.413a5.14 5.14 0 015.897-2.874.782.782 0 00.413-1.493zm20.537-3.313a5.29 5.29 0 00-5.494.137c-.835.538-.059 1.879.783 1.339a3.713 3.713 0 013.931-.14.782.782 0 00.965-.332.783.783 0 00-.185-1.004zm-22.296 8.204a.777.777 0 00-.646-.215.785.785 0 00-.571.372 1.548 1.548 0 00-.196.673 1.278 1.278 0 00.263 1.159c.019.037.027.074.049.11a.738.738 0 00.761.351.795.795 0 00.792-.553c.016-.057.016-.11.028-.165a.757.757 0 00.045-.258 1.887 1.887 0 00-.525-1.473zm18.966-2.795c-.033-.055-.082-.108-.121-.163-.039-.055-.039-.062-.067-.088-.027-.025-.072-.11-.119-.16a.676.676 0 00-.708-.186c-.032 0-.057-.018-.088-.02a.756.756 0 00-.67.392 1.67 1.67 0 00.022 1.428.767.767 0 00.859.704c.037.012.059.04.098.05a.783.783 0 00.953-.543 2 2 0 00.047-.751 1.313 1.313 0 00-.206-.663zm-5.899 1.847c.546 1.238.824 3.363-.957 3.706-.978.195-.564 1.68.413 1.493a3.43 3.43 0 002.518-3.814c-.196-2.193-1.872-3.833-2.36-5.93-.225-.979-1.72-.56-1.493.41a23.764 23.764 0 001.879 4.135z" fill="#000"/><path d="M208.23 77.897a10.722 10.722 0 01-12.826.053.782.782 0 00-1.164.669 8.747 8.747 0 007.786 8.691c.978.124.978-1.426 0-1.55a7.121 7.121 0 01-6.066-5.66 12.185 12.185 0 0013.055-.865c.789-.577.018-1.931-.785-1.338zm-94.796 214.875a2.504 2.504 0 100-5.008 2.504 2.504 0 000 5.008zm22.613-5.768a2.505 2.505 0 100-5.01 2.505 2.505 0 000 5.01zm-23.312-7.424a7.413 7.413 0 00-5.478 5.929c-.149.978 1.344 1.395 1.495.411a5.908 5.908 0 014.39-4.847c.983-.186.568-1.679-.407-1.493zm27.914-3.261c-2.952-1.284-5.78-2.106-8.824-.607-.895.44-.112 1.777.782 1.336a8.276 8.276 0 017.261.609c.904.385 1.693-.941.781-1.338zm-5.617 15.447c-5.479 1.413-10.852 3.131-16.317 4.567a.787.787 0 00-.508.457.774.774 0 00.044.682 10.838 10.838 0 008.584 5.336 8.256 8.256 0 006.788-3.121 12.586 12.586 0 002.389-7.175.791.791 0 00-.309-.611.776.776 0 00-.671-.135zm-2.462 6.761a6.73 6.73 0 01-5.735 2.739 9 9 0 01-6.653-3.718c4.739-1.271 9.43-2.721 14.173-3.983a10.566 10.566 0 01-1.785 4.962zm-24.464 223.449a153.603 153.603 0 01-28.229-24.396 37.419 37.419 0 00-5.582-5.608 4.475 4.475 0 00-2.978-1.103 5.978 5.978 0 00-4.88 3.377c-2.644 5.635.978 13.405 5.361 19.371 6.289 8.572 25.81 20.369 25.81 20.369l10.498-12.01zm351.662-230.523c1.295-.297.747-2.289-.55-1.992-2.104.484-4.892.783-5.207-2.036-.28-2.495.967-4.873.133-7.356-.42-1.252-2.414-.716-1.99.55.979 2.896-1.088 5.935.309 8.835 1.374 2.852 4.696 2.598 7.305 1.999zm-8.514-10.975a.934.934 0 00-.013-.236v-.038a1.07 1.07 0 00-.077-.16.84.84 0 00-.053-.114 1.457 1.457 0 100 1.098c.022-.038.042-.078.059-.119.027-.051.051-.103.073-.157v-.037a.99.99 0 00.011-.237zm21.856-.007a1.025 1.025 0 00-.015-.235v-.039c-.018-.061-.055-.104-.077-.161a1.068 1.068 0 00-.055-.113 1.455 1.455 0 00-1.63-.881 1.46 1.46 0 00-.845 2.357 1.46 1.46 0 001.818.356c.298-.161.53-.42.657-.733.026-.037.038-.082.059-.121.022-.039.057-.096.075-.154a.241.241 0 010-.038c.013-.078.018-.159.013-.238zm-9.104-7.841c-.863 1.004.587 2.471 1.46 1.46a5.202 5.202 0 016.952-.828c1.082.783 2.115-1.015 1.043-1.782a7.24 7.24 0 00-9.455 1.15zm-11.321-1.137c1.273.392 1.817-1.6.549-1.99a7.92 7.92 0 00-8.331 2.474c-.839 1.017.614 2.485 1.46 1.459a5.898 5.898 0 016.322-1.943z" fill="#000"/><path d="M512.159 271.079a35.847 35.847 0 00-7.813-11.829 12.55 12.55 0 00-6.514-18.567 12.55 12.55 0 00-7.421-.242 29.489 29.489 0 00-6.549-11.74 14.561 14.561 0 00-12.231-4.569 9.784 9.784 0 00-8.371 9.197 26.487 26.487 0 00-30.635 12.914 13.933 13.933 0 00-1.607 9.311 7.386 7.386 0 002.37 4.075 7.386 7.386 0 004.35 1.815 15.696 15.696 0 00-4.318 24.826 15.703 15.703 0 008.415 4.608c.196.605.391 1.205.612 1.796a30.044 30.044 0 003.644 6.849.944.944 0 00-.597.127 59.952 59.952 0 00-12.537 9.926c-.923.957.537 2.418 1.46 1.46a57.824 57.824 0 0112.12-9.602.94.94 0 00.479-.718 23.353 23.353 0 004.71 4.459 18.893 18.893 0 0014.088 3.192 20.599 20.599 0 009.76-4.673 56.502 56.502 0 01-19.802 16.26c-1.191.587-.147 2.368 1.043 1.783a58.377 58.377 0 0022.784-20.134 12.687 12.687 0 008.767 1.682 13.342 13.342 0 0010.332-14.387 10.26 10.26 0 0012.418-4.074 15.78 15.78 0 001.043-13.745zm-27.589 9.515c-.833 9.922-6.065 21.097-15.939 24.849a16.666 16.666 0 01-13.023-.403 22.024 22.024 0 01-9.84-9.979 32.812 32.812 0 01-3.477-15.868 24.083 24.083 0 014.41-14.358c5.442-6.972 15.409-8.218 23.56-6.389a18.605 18.605 0 0110.202 5.675 19.55 19.55 0 014.213 12.229 37.898 37.898 0 01-.109 4.236l.003.008zm5.546 4.123a5.9 5.9 0 01-5.125 4.365 35.717 35.717 0 001-3.849c.302-1.533.517-3.082.644-4.639.072-.924.099-1.857.107-2.792a5.906 5.906 0 013.37 6.915h.004z" fill="#000"/><path d="M467.853 291.481a.81.81 0 00-.465.032.812.812 0 00-.369.285 11.46 11.46 0 01-9.498 4.304c-1.328-.062-1.324 2.004 0 2.065a13.43 13.43 0 009.821-3.683 12.268 12.268 0 01-3.066 7.768c-.661.742.43 1.841 1.096 1.094a13.885 13.885 0 003.359-11.349.63.63 0 00-.878-.516z" fill="#000"/><path d="M348.645 118.144l2.739 15.479c.174.978 1.665.565 1.493-.411l-2.739-15.481c-.173-.979-1.656-.564-1.493.413zm5.285-48.465l.892 32.782a.78.78 0 00.775.672c.188 0 .37-.068.513-.191a.79.79 0 00.262-.481l-.895-32.782a.782.782 0 00-1.547 0zm6.613 49.161l1.89 23.676c.079.978 1.628.996 1.548 0l-1.888-23.676c-.08-.986-1.63-.994-1.55 0zm5.774-34.592l.126 26.405a.781.781 0 001.547 0c-.04-8.801-.082-17.602-.125-26.405a.782.782 0 00-1.548 0zm3.166-45.528l2.153 32.759c.064.99 1.614.998 1.549 0a69276.54 69276.54 0 01-2.152-32.759c-.067-.99-1.614-.995-1.55 0zm8.273 69.2v30.96a.785.785 0 001.288.481.785.785 0 00.262-.481v-30.96a.787.787 0 00-.262-.481.787.787 0 00-1.026 0 .787.787 0 00-.262.481zM361.7 62.418l-1.826-26.415c-.068-.979-1.618-.996-1.548 0l1.826 26.415c.07.978 1.618.99 1.548 0zm-16.767-41.914l.91 29.14c.031.995 1.579.998 1.549 0l-.909-29.14c-.032-.994-1.579-.998-1.55 0zm-4.714 43.724l2.814 35.507c.076.979 1.626.996 1.548 0l-2.812-35.507c-.078-.986-1.628-.994-1.55 0zm20.811-36.432a47159.64 47159.64 0 01-2.046-17.275c-.116-.978-1.665-.99-1.548 0l2.045 17.275c.117.977 1.667.989 1.549 0zm23.651-9.127l-.726 18.218c-.039.996 1.508.996 1.549 0l.726-18.218c.039-.998-1.508-.996-1.549 0zm-3.914 48.306l1.26 26.39c.047.991 1.597.997 1.548 0l-1.258-26.39c-.047-.994-1.595-.998-1.55 0z" fill="#84D0AB"/><path d="M287.712 549.954c-7.386-6.877-21.498-1.152-31.201 1.881s-17.005 5.553-25.632 10.922c-2.152 1.336-4.618 3.479-3.812 5.87.853 2.532 4.375 2.577 7.011 2.133l43.358-7.336a16.548 16.548 0 008.936-3.408c2.34-2.223 3.997-8.22 1.34-10.062zm154.299-52.233c-.44-.894-1.777-.109-1.338.783a155.037 155.037 0 013.373 7.331c.391.914 1.726.126 1.338-.782a166.265 166.265 0 00-3.373-7.332zm7.541-6.701a300.03 300.03 0 001.692 14.767c.137.978 1.63.563 1.493-.413a287.97 287.97 0 01-1.635-14.354c-.09-.985-1.638-.994-1.55 0zm10.069-1.767l-1.403 16.502c-.086.994 1.464.979 1.548 0l1.403-16.502c.084-.994-1.466-.988-1.548 0zm8.052.188l-4.491 16.614a.78.78 0 001.493.411l4.491-16.613a.784.784 0 00-1.113-.804.772.772 0 00-.38.392zm8.151 2.966l-5.389 13.618c-.367.926 1.131 1.329 1.493.411l5.389-13.618c.366-.926-1.131-1.329-1.493-.411zm5.489 5.901l-3.955 7.721c-.454.887.883 1.671 1.337.783l3.954-7.723c.452-.885-.881-1.669-1.336-.781zm12.031 20.796c-.379-.906-1.878-.509-1.495.411l2.336 5.603c.378.906 1.879.509 1.495-.41l-2.336-5.604zm5.105-2.299a.78.78 0 00-1.493.412l2.18 8.13a.78.78 0 001.493-.412l-2.18-8.13zm5.273-.938v9.713a.783.783 0 001.548 0v-9.713a.781.781 0 00-1.284-.476.783.783 0 00-.264.476zm8.69-1.459l-2.176 10.875c-.196.978 1.297 1.389 1.493.411l2.176-10.874c.196-.982-1.297-1.391-1.493-.412zm8.363 1.197l-3.671 9.365c-.364.929 1.133 1.33 1.493.413l3.671-9.367c.358-.927-1.133-1.33-1.493-.411zm8.934 3.876l-3.327 5.364c-.528.849.811 1.625 1.337.782l3.326-5.361c.529-.851-.812-1.63-1.336-.785zM35.08 221.17c-.476-.877-1.815-.096-1.34.782l9.588 17.675c.476.877 1.812.096 1.337-.783-3.196-5.89-6.391-11.782-9.586-17.674zm17.511 2.477l-3.05 15.781c-.196.978 1.305 1.391 1.495.41l3.048-15.78c.188-.978-1.303-1.389-1.493-.411zm22.461 1.528L62.92 243.396c-.553.831.783 1.608 1.339.782l12.131-18.222c.554-.832-.788-1.609-1.338-.781zm471.889 23.578a8.816 8.816 0 00-5.056-5.099 6.216 6.216 0 00-6.653 2.643 15.964 15.964 0 00-2.269 9.079 8.708 8.708 0 01-.996 4.984c-1.45 1.694-3.215-1.012-3.847-2.117a5.676 5.676 0 00-3.156-3.096 2.85 2.85 0 00-3.28 1.104.789.789 0 000 .783 64.758 64.758 0 017.79 27.643c.049.99 1.599.998 1.548 0a66.537 66.537 0 00-7.743-27.921c.783-.632 2.106.219 2.62.868a31.217 31.217 0 002.405 3.562 3.684 3.684 0 003.307 1.146 3.359 3.359 0 002.242-2.217c.413-1.318.623-2.692.622-4.073.033-1.704.18-3.404.44-5.088.482-2.475 1.981-5.426 4.722-5.921 2.52-.454 4.412 1.585 5.516 3.589a25.154 25.154 0 012.348 7.826 50.485 50.485 0 01-7.498 36.142c-.55.836.782 1.612 1.336.783a52.17 52.17 0 007.848-36.148 31.25 31.25 0 00-2.246-8.472zm.501-17.248c-.52-.849-1.861-.07-1.336.783a63.486 63.486 0 019.345 32.676 61.79 61.79 0 01-.691 9.703c-.147.978 1.344 1.395 1.495.413a65.051 65.051 0 00-4.266-34.684 64.063 64.063 0 00-4.547-8.891zm15.513 10.965a.786.786 0 00-.925-.439.781.781 0 00-.568.852 61.17 61.17 0 01-.726 36.003c-.313.947 1.174 1.354 1.493.411a62.677 62.677 0 00.726-36.827zM517.46 412.503a27.14 27.14 0 019.936 3.044c1.434.744 3.326 1.532 4.772.401a3.704 3.704 0 00.805-4.042 42.5 42.5 0 00-3.969-9.66 17.667 17.667 0 00-6.848-7.124c-1.683-.897-3.992-1.538-4.823-3.446-.814-1.871 1.197-3.156 1.434-4.911a2.31 2.31 0 00-1.091-2.581 2.316 2.316 0 00-.952-.294c-1.735 0-2.85 2.037-3.846 3.186a52.414 52.414 0 01-21.08 14.645c-.925.347-.524 1.844.411 1.493a54.21 54.21 0 0018.287-11.411 52.401 52.401 0 003.669-3.857c.558-.649 1.057-1.379 1.671-1.974.235-.227.681-.665 1.051-.514.37.15.391.659.366.978a5.018 5.018 0 01-.979 2.033 4.285 4.285 0 00-.696 2.52 5.332 5.332 0 002.659 3.857c1.516.978 3.25 1.53 4.719 2.598a15.355 15.355 0 013.423 3.553 36.966 36.966 0 014.334 9.071c.391 1.131 1.565 3.372.673 4.501-1.061 1.322-3.718-.652-4.8-1.153a27.998 27.998 0 00-9.412-2.481 28.805 28.805 0 00-20.83 6.457c-.765.642.336 1.732 1.095 1.096a27.297 27.297 0 0120.021-5.985zm20.653 28.819a25.8 25.8 0 00-21.571-12.61 23.721 23.721 0 00-7.347.978.782.782 0 00.413 1.495 24.107 24.107 0 0127.166 10.922.782.782 0 001.339-.785zM381.564 557.846c-.378-.906-1.879-.509-1.495.413l2.336 5.602c.38.907 1.879.508 1.495-.411l-2.336-5.604zm5.107-2.29a.786.786 0 00-1.373-.122.783.783 0 00-.122.535c.725 2.71 1.452 5.42 2.179 8.13a.78.78 0 00.924.439.786.786 0 00.569-.85l-2.177-8.132zm5.271-.937v9.713a.781.781 0 001.284.476.783.783 0 00.264-.476v-9.713a.783.783 0 00-1.548 0zm8.689-1.469l-2.175 10.873c-.196.978 1.297 1.389 1.495.411l2.173-10.873c.196-.969-1.297-1.39-1.493-.411zm8.363 1.207l-3.67 9.359c-.364.929 1.132 1.33 1.492.413l3.673-9.365c.362-.924-1.135-1.325-1.495-.407zm8.934 3.88l-3.326 5.361c-.528.85.81 1.628 1.336.783l3.327-5.361c.528-.853-.81-1.63-1.337-.783zm-257.597-19.751c-.377-.906-1.876-.508-1.493.413l2.337 5.602c.377.908 1.878.509 1.493-.411l-2.337-5.604zm5.107-2.295a.786.786 0 00-.924-.438.779.779 0 00-.569.849l2.18 8.13a.786.786 0 00.924.439.78.78 0 00.569-.85l-2.18-8.13zm5.273-.939v9.713a.783.783 0 001.548 0v-9.713a.781.781 0 00-1.284-.476.783.783 0 00-.264.476zm8.69-1.473l-2.176 10.873c-.196.978 1.297 1.389 1.493.413.727-3.625 1.452-7.25 2.176-10.875.195-.965-1.297-1.39-1.493-.411zm8.363 1.211l-3.671 9.366c-.364.928 1.133 1.331 1.493.411l3.671-9.364c.364-.93-1.133-1.331-1.493-.413zm8.934 3.876l-3.326 5.361c-.529.849.81 1.628 1.336.783l3.326-5.363c.529-.846-.802-1.624-1.336-.781zm-97.976 31.125c-.378-.906-1.877-.509-1.493.411l2.336 5.604c.378.905 1.876.508 1.493-.413l-2.336-5.602zm5.107-2.297a.78.78 0 00-.924-.439.786.786 0 00-.569.849l2.179 8.132a.78.78 0 001.493-.412c-.725-2.71-1.452-5.42-2.179-8.13zm5.273-.938v9.713a.781.781 0 001.284.476.783.783 0 00.264-.476v-9.713a.783.783 0 00-1.548 0zm8.689-1.475l-2.175 10.875c-.196.978 1.297 1.389 1.492.411l2.176-10.873c.196-.967-1.297-1.391-1.493-.413zm8.363 1.213l-3.667 9.365c-.364.927 1.133 1.33 1.493.411 1.223-3.122 2.446-6.243 3.671-9.365.36-.927-1.137-1.331-1.497-.411zm8.932 3.874l-3.326 5.364c-.526.847.812 1.625 1.338.782l3.327-5.361c.528-.849-.812-1.628-1.339-.785zm345.563-3.459c-.377-.908-1.876-.509-1.493.411l2.337 5.604c.377.906 1.876.509 1.493-.413l-2.337-5.602zm5.107-2.297a.782.782 0 00-1.493.411l2.178 8.13a.786.786 0 001.366.119.778.778 0 00.127-.53l-2.178-8.13zm5.271-.939v9.712a.785.785 0 001.288.481.775.775 0 00.262-.481v-9.712a.78.78 0 00-1.288-.481.785.785 0 00-.262.481zm8.692-1.466l-2.176 10.873c-.196.979 1.297 1.392 1.493.413.724-3.625 1.449-7.25 2.176-10.875.194-.972-1.299-1.389-1.493-.411zm8.363 1.205l-3.673 9.365c-.364.927 1.135 1.331 1.495.411l3.671-9.365c.364-.927-1.133-1.33-1.493-.411zm8.932 3.876l-3.326 5.362c-.529.849.812 1.628 1.336.782l3.326-5.361c.529-.849-.812-1.628-1.336-.783z" fill="#000"/><path d="M220.64 200.826a27.999 27.999 0 001.876 2.137 39.19 39.19 0 0011.611 7.813l26.366-40.225c-3.839-.855-7.588-2.272-11.36-3.43-5.87 10.493-14.126 19.41-22.449 28.017a48.315 48.315 0 01-6.044 5.688z" fill="#84D0AB"/><path d="M279.592 86.68c-2.751-4.981-9.93-5.893-15.109-3.54-5.18 2.355-8.858 7.03-12.466 11.428-3.608 4.398-7.631 8.887-13.067 10.595-9.797 3.086-28.239-7.46-39.546-6.61a21.136 21.136 0 00-3.411.026c-9.174.833-15.745 8.259-20.349 15.577a117.363 117.363 0 00-12.577 27.628 98.339 98.339 0 00-4.892 31.669 60.38 60.38 0 007.613 28.608c4.244 7.342 11.331 15.44 20.51 15.695a14.463 14.463 0 0010.507-4.07 10.33 10.33 0 002.74-4.681c.512-2.509.332-5.11-.521-7.525-.8-2.69-1.894-5.301-2.886-7.925l-2.935-7.752a80716.71 80716.71 0 01-5.989-15.849c-.352-.935 1.143-1.332 1.495-.411a108.276 108.276 0 009.276 19.588 52.502 52.502 0 005.755 7.561 21.656 21.656 0 007.482 5.807 9.348 9.348 0 009.41-1.676 48.397 48.397 0 006.044-5.689c8.324-8.609 16.581-17.523 22.449-28.017.553-.99 1.115-1.974 1.624-2.996a.776.776 0 01-.587-.174 37.17 37.17 0 01-4.87-4.666 64.974 64.974 0 01-10.339-17.644 31.825 31.825 0 009.478-2.078c18.334-8.333 28.657-21.523 34.93-40.663 1.323-3.984 2.26-8.545.231-12.216zm-89.013 66.093a.642.642 0 01-.489.252 42.63 42.63 0 01-3.62 13.572c-.413.905-1.747.119-1.338-.783a40.816 40.816 0 002.956-24.304c-.181-.978 1.311-1.389 1.495-.411a42.45 42.45 0 01.681 9.515 12.981 12.981 0 002.047-8.701c-.115-.99 1.434-.978 1.548 0a14.413 14.413 0 01-3.28 10.86zm18.223-18.964c-.808-1.215-1.617-2.429-2.428-3.644-.554-.831.782-1.606 1.338-.782l2.428 3.641c.548.836-.794 1.61-1.346.785h.008zm5.545 11.472c-.609-.783.738-1.566 1.338-.783l3.19 4.13c.608.783-.738 1.566-1.339.783a2680.85 2680.85 0 00-3.197-4.13h.008zm11.38 18.324l-2.444-3.632c-.56-.831.783-1.604 1.336-.782l2.444 3.631c.552.83-.79 1.605-1.344.783h.008zm7.359 13.305l-2.428-3.643c-.556-.832.782-1.607 1.336-.783l2.428 3.641c.548.836-.796 1.611-1.344.785h.008zm.755-13.83a122.685 122.685 0 01-6.392-7.863 108.23 108.23 0 01-2.436-3.397c-.599-.863-1.174-1.744-1.748-2.622-.164-.251-.334-.495-.495-.748a112.94 112.94 0 01-2.068-3.346l-.029-.046a121.053 121.053 0 01-10.014-21.189c-.337-.941 1.16-1.342 1.495-.411a118.771 118.771 0 003.782 9.31 120.77 120.77 0 007.727 14.191l.084.135a121.431 121.431 0 003.42 5.088l.106.143a120.17 120.17 0 003.24 4.316 115.84 115.84 0 004.422 5.34c.648.747-.44 1.847-1.102 1.099h.008z" fill="#F36E72"/><path d="M128.316 309.255a19.537 19.537 0 01-7.157-.544l1.792 12.63a88.523 88.523 0 006.813-2.314c4.626-1.779 9.173-3.828 13.742-5.788a256.76 256.76 0 01-2.336-10.875 19.813 19.813 0 01-12.854 6.891z" fill="#000"/><path d="M121.458 321.758l-1.923-13.546a21.775 21.775 0 01-14.055-18.214c-1.336-11.901 6.721-22.574 18.001-23.84a20.738 20.738 0 0121.373 13.422c.037 0 .072-.011.11-.011a5.448 5.448 0 015.433 4.761 5.455 5.455 0 01-4.064 5.973 22.043 22.043 0 01-3.888 10.437c.74 3.981 1.579 7.942 2.519 11.883a108.892 108.892 0 0114.283-5.113c-.125-2.086-.274-4.17-.481-6.25a93.948 93.948 0 00-3.994-20.087 39.155 39.155 0 00-8.94-15.696 24.025 24.025 0 00-16.074-7.025 31.195 31.195 0 00-22.953 8.437c-6.457 6.244-10.112 14.814-12.58 23.302a142.36 142.36 0 00-4.414 28.879 31.005 31.005 0 003.882 2.076c8.672 3.815 18.465 3.134 27.765.612zm-22.668 56.64c-2.947-4.172-7.744-6.43-12.386-8.696-.046.431-.084.861-.127 1.294a79.635 79.635 0 001.957 19.876 29.004 29.004 0 002.152 4.553 21.739 21.739 0 008.976 8.169 28.389 28.389 0 004.198 1.698c-.288-3.926-.574-7.853-.858-11.779-.386-5.257-.869-10.808-3.912-15.115z" fill="#000"/><path d="M189.19 498.414a84.848 84.848 0 01-15.231-10.693c-3.142-2.589-6.202-5.283-9.223-8.005 2.894-3.581 5.731-7.204 8.435-10.93a241.224 241.224 0 0011.055-16.632 204.448 204.448 0 004.882-8.499l.154-.292v-3.225c-.115.196-.248.413-.316.542l-1.174 2.192a245.22 245.22 0 01-2.348 4.209 225.86 225.86 0 01-10.508 16.588 275.665 275.665 0 01-24.961 30.755 357.24 357.24 0 01-28.493 27.247 29.572 29.572 0 01-3.649 2.739 616.679 616.679 0 00-13.086-10.632.654.654 0 00.452-.245 1287.628 1287.628 0 0032.739-40.738 1286.302 1286.302 0 0031.148-42.154c5.494-7.762 10.9-15.588 16.219-23.48l-2.121.362a1310.188 1310.188 0 01-28.638 40.638 1281.024 1281.024 0 01-50.447 64.276.761.761 0 00-.151.72c-3.541-2.8-7.1-5.579-10.677-8.337 1.579-2.9 3.614-5.598 5.443-8.333 2.02-3.02 4.041-6.04 6.066-9.06l12.217-18.267 24.433-36.541 13.167-19.676-.556.127c-.55.123-1.098.26-1.648.391l-2.907 4.348-6.261 9.361-11.153 16.68a144.35 144.35 0 01-9.013-13.52 49.73 49.73 0 01-3.821-8.14c-.505.133-1.01.27-1.517.401a81.988 81.988 0 0010.6 18.68c.925 1.323 1.903 2.605 2.868 3.898l-.587.873-25.147 37.591-7.067 10.566-3.534 5.283a53.64 53.64 0 00-3.252 5.142.802.802 0 00.278 1.059c8.576 6.586 17.064 13.29 25.358 20.23a.811.811 0 00.937.121 51.052 51.052 0 007.827-6.251 363.619 363.619 0 007.339-6.628 355.547 355.547 0 0014.265-13.982 296.254 296.254 0 0016.173-18.258c1.716 1.554 3.432 3.106 5.189 4.608a128.142 128.142 0 0016.196 12.425 46.514 46.514 0 004.122 2.229v-3.763c-.004.622-.068 1.321-.076 2z" fill="#74A3D7"/><path d="M114.173 485.253l-16.4 21.778c-.599.796.745 1.565 1.338.783l29.192-38.77 29.191-38.773 15.83-21.022c-.748.135-1.491.277-2.237.412l-27.722 36.819-29.192 38.773zm14.799 11.781a866.392 866.392 0 01-17.64 20.849c-.651.747.439 1.847 1.096 1.093a896.872 896.872 0 0031.074-37.64 881.818 881.818 0 0028.978-39.311 892.379 892.379 0 0015.34-22.799c.544-.84-.796-1.617-1.338-.783a883.952 883.952 0 01-57.51 78.591zm54.718-60.609a458.323 458.323 0 01-23.871 34.676 449.1 449.1 0 01-26.977 32.285 455.626 455.626 0 01-16.516 17.08c-.712.7.391 1.794 1.096 1.095a459.035 459.035 0 0028.763-30.978 458.915 458.915 0 0025.687-33.402 453.038 453.038 0 0013.172-19.974c.513-.849-.828-1.627-1.354-.782z" fill="#74A3D7"/><path d="M127.784 363.985l-2.583-15.008a9.68 9.68 0 01-5.653 6.665c-3.522 1.463-7.13.223-10.307-1.526.981 4.572 1.959 9.144 2.935 13.716a40.694 40.694 0 0115.334-3.892.754.754 0 01.274.045z" fill="#FCAFB7"/><path d="M118.693 354.323a8.097 8.097 0 005.103-6.066l-14.837 3.914c2.917 1.763 6.341 3.383 9.734 2.152z" fill="#FCAFB7"/><path d="M152.371 413.457c.55-.127 1.098-.264 1.648-.391l.556-.127c.546-.125 1.092-.256 1.639-.372 4.943-1.055 9.903-2.002 14.871-2.909.746-.135 1.489-.278 2.237-.413 3.275-.587 6.553-1.16 9.834-1.718l2.121-.362 3.984-.681v-96.487a38.037 38.037 0 00-24.725-3.677c-1.79.309-3.549.726-5.295 1.192a109.033 109.033 0 00-14.283 5.112c-.484.196-.967.407-1.448.615-4.569 1.957-9.116 4.009-13.742 5.788a89.11 89.11 0 01-6.813 2.314c-.495.147-.994.282-1.493.417-9.3 2.522-19.093 3.203-27.775-.612a31.012 31.012 0 01-3.882-2.076c-10.724-6.653-17.011-19.156-24.306-29.814a33.408 33.408 0 00-4.94-5.97c-5.87 2.632-11.74 5.283-17.763 7.486-.04.306-.084.613-.117.914-3.356 30.89 14.049 62.995 41.763 77.042.65.329 1.307.652 1.957.978 4.64 2.266 9.439 4.524 12.385 8.696 3.043 4.304 3.522 9.857 3.914 15.115.285 3.928.572 7.854.859 11.779l.978 13.345a26.237 26.237 0 001.193 6.811c4.012-.863 7.997-1.834 11.973-2.861.507-.131 1.012-.268 1.517-.401 11.051-2.9 22.03-6.169 33.153-8.733zm-40.277-43.876a.81.81 0 01-1.161-.648.709.709 0 01-.166-.33l-3.326-15.542-.03-.018a.71.71 0 01-.352-.596.788.788 0 01-.196-1.163.777.777 0 01.362-.248.826.826 0 011.088-.29l15.849-4.183a.837.837 0 01.679-.18l.615-.163a.74.74 0 01.828.321.743.743 0 01.107.296c.01.021.018.042.025.064l3.031 17.61c.147.855-.978 1.28-1.369.717a.76.76 0 01-.556.268 38.762 38.762 0 00-15.428 4.085z" fill="#F58AB4"/><path d="M128.066 365.224c.391.563 1.52.139 1.369-.717-1.012-5.87-2.022-11.74-3.03-17.61-.008-.021-.016-.043-.026-.064a.734.734 0 00-.327-.522.744.744 0 00-.608-.094l-.615.162a.836.836 0 00-.679.18l-15.849 4.183a.824.824 0 00-1.087.29.78.78 0 00-.461 1.085.779.779 0 00.294.326.721.721 0 00.352.596l.03.018 3.326 15.542a.727.727 0 00.166.331.818.818 0 00.412.626.809.809 0 00.749.021 38.786 38.786 0 0115.416-4.089.754.754 0 00.568-.264zm-4.27-16.965a8.098 8.098 0 01-5.103 6.066c-3.393 1.231-6.817-.391-9.734-2.152l14.837-3.914zm-14.555 5.857c3.177 1.749 6.778 2.989 10.307 1.526a9.68 9.68 0 005.653-6.665l2.583 15.008a.753.753 0 00-.274-.043 40.694 40.694 0 00-15.326 3.89c-.983-4.571-1.964-9.143-2.943-13.716z" fill="#FCFCFC"/><path d="M434.576 416.733a82.906 82.906 0 01-15.202-18.418v30.262a113.986 113.986 0 0015.202-11.844z" fill="#FCAFB7"/><path d="M525.169 282.844a60.333 60.333 0 00-9.147 10.521c-5.796 8.359-12.132 16.632-20.61 22.245-8.478 5.614-19.551 8.218-29.001 4.456-7.794-3.104-13.437-9.964-20.659-14.233a35.087 35.087 0 00-25.501-3.935c-.298.068-.587.162-.879.25v93.161c.047.082.092.165.141.245a94.479 94.479 0 004.974 7.652 66.402 66.402 0 0027.689 22.989 46.685 46.685 0 0033.314 1.031 35.518 35.518 0 0013.978-9.079c3.609-3.891 6.9-10.397 4.344-15.653-2.575-5.308-9.196-5.827-14.36-6.359a47.789 47.789 0 01-16.555-4.516 54.858 54.858 0 01-24.5-25.353 84.738 84.738 0 01-7.539-39.329.783.783 0 011.548 0c-.09 3.397-.037 6.798.196 10.189.927 13.428 4.737 26.988 12.894 37.867a53.919 53.919 0 005.385 6.132 110.739 110.739 0 008.609-25.466c15.708 2.348 31.894-3.829 44.025-14.074 12.132-10.245 20.624-24.204 27.002-38.742a82.382 82.382 0 001.658-4.099c3.848-10.374-9.658-22.516-17.006-15.9zM484.394 403.66l1.822 9.107c.196.978-1.299 1.387-1.495.411l-1.82-9.107c-.191-.976 1.298-1.389 1.493-.411zm-24.186 17.115l7.285-10.018c.587-.798 1.923-.025 1.336.783l-7.285 10.016c-.575.798-1.923.025-1.336-.781zm-19.126-15.273l3.717-12.731a.783.783 0 011.493.411l-3.706 12.73a.783.783 0 01-1.499-.41h-.005zm-4.109-28.517l-9.015-6.502c-.802-.577-.029-1.919.783-1.336l9.014 6.5c.81.579.037 1.921-.773 1.338h-.009zm22.82-44.632l-1.822 3.644c-.446.892-1.782.105-1.338-.783l1.822-3.641c.456-.896 1.792-.114 1.348.78h-.01zm25.145 3.884l-9.096 6.375c-.818.574-1.591-.771-.783-1.338l9.106-6.373c.82-.573 1.595.769.783 1.336h-.01zm13.433 2.27l-2.74-7.284c-.352-.938 1.147-1.337 1.493-.413l2.74 7.284c.362.938-1.137 1.337-1.483.409l-.01.004zm22.586-14.753l-9.105-.927c-.978-.1-.992-1.65 0-1.548l9.105.927c.992.1.999 1.65.009 1.548h-.009zm7.345-21.647l-.914-4.553c-.196-.978 1.297-1.387 1.495-.411l.914 4.552c.205.976-1.29 1.393-1.485.414l-.01-.002z" fill="#F58AB4"/><path d="M315.657 187.977a26.271 26.271 0 00-29.231 7.81 26.278 26.278 0 0039.021 35.148 26.276 26.276 0 007.094-14.195c.209-1.356.317-2.725.323-4.097a26.554 26.554 0 00-17.207-24.666z" fill="#000"/><path d="M348.678 239.334a43.844 43.844 0 00-7.167-8.753 227.837 227.837 0 00-25.95-24 83.913 83.913 0 00-23.213-12.619c-8.872 7.207-9.979 19.763-5.385 29.986 3.727.681 7.359 3.88 10.591 5.87a59.819 59.819 0 0112.762 11.282 106.85 106.85 0 0011.722 12.232 24.166 24.166 0 0015.51 6.038c5.675-.174 11.443-3.718 12.948-9.159a14.628 14.628 0 00-1.818-10.877z" fill="#84D0AB"/><path d="M348.322 275.264a153.561 153.561 0 0135.322-12.006 37.433 37.433 0 007.66-1.976 4.495 4.495 0 002.46-2.01 5.984 5.984 0 00-.445-5.919c-3.522-5.132-12.061-5.934-19.422-5.177-10.575 1.086-30.627 11.953-30.627 11.953l5.052 15.135zm-75.531 121.399c-1.37-2.381-4.125-3.727-6.383-5.113-2.606-1.6-5.228-3.177-7.905-4.66a69.9 69.9 0 00-16.755-7.001 8.485 8.485 0 00-4.359-.527 3.092 3.092 0 00-2.057 2.431 4.462 4.462 0 001.37 3.344c.055.072.129.127.196.195a6.306 6.306 0 00-1.91-.037 4.508 4.508 0 00-3.822 3.019 5.009 5.009 0 001.47 4.706c.52.496 1.114.908 1.761 1.221a4.674 4.674 0 00-2.694 1.747 4.608 4.608 0 00-.098 5.283c1.518 2.164 4.371 2.818 6.795 3.479l18.197 4.964 5.567 1.519a6.608 6.608 0 006.496-1.869 15.682 15.682 0 002.008-3.326c.636-1.202 1.211-2.47 1.921-3.632a5.31 5.31 0 00.965-2.317 5.737 5.737 0 00-.763-3.426zm-1.503 4.892c-.499.798-.892 1.687-1.333 2.518-.555 1.051-1.091 2.115-1.667 3.154a5.037 5.037 0 01-2.42 2.247 5.041 5.041 0 01-3.291.27l-12.697-3.464c-4.289-1.174-8.592-2.295-12.869-3.51-2.025-.575-4.943-1.839-4.641-4.408.356-3.025 3.833-2.971 6.138-2.771.874.076 1.045-1.319.205-1.52-2.389-.587-6.678-1.761-6.12-5.105a3.015 3.015 0 012.996-2.188 9.854 9.854 0 014.621 1.37c.888.426 1.657-.83.783-1.337a10.975 10.975 0 01-2.739-2.222c-.605-.679-1.675-1.8-1.343-2.804.392-1.196 1.566-1.037 2.544-.838 1.26.261 2.508.572 3.743.934a71.028 71.028 0 0114.088 6.102 176.666 176.666 0 016.803 3.963 35.754 35.754 0 016.234 4.109 5.185 5.185 0 011.624 2.667 3.456 3.456 0 01-.659 2.837v-.004zm25.307-65.008c-.207-.979-1.7-.562-1.492.413a49.223 49.223 0 008.218 18.566c.587.803 1.921.03 1.338-.782a48.148 48.148 0 01-8.064-18.197z" fill="#000"/><path d="M335.064 361.336a99.4 99.4 0 01-7.545-49.43.746.746 0 00-.024-.24 6.594 6.594 0 004.763-1.859 8.087 8.087 0 00.859-9.717 8.07 8.07 0 00-3.577-3.099c.217-.556.318-1.15.299-1.746l.047-6.134a28.38 28.38 0 00-.509-6.883 9.55 9.55 0 00-3.606-5.724 19.425 19.425 0 00-7.631-2.152c-.643-.121-1.448-.481-1.369-1.133.041-.323.307-.575.391-.89.196-.707-.526-1.309-1.174-1.659a23.286 23.286 0 00-16.342-2.153 9.23 9.23 0 01-5.361.405 10.992 10.992 0 01-3.421-2.882 15.154 15.154 0 00-10.779-3.489c-14.806-.139-13.023 10.609-13.305 13.713a26.403 26.403 0 001.264 9.212 8.707 8.707 0 002.677 4.954c.095.07.207.102.305.162-.35 4.305-.892 8.61-1.344 12.899a53.245 53.245 0 00.148 17.471 16.656 16.656 0 009.277 11.675c7.758 3.599 16.933 2.935 25.208 2.268a25.463 25.463 0 008.075-1.644 14.617 14.617 0 005.895-4.754 20.743 20.743 0 003.479-7.649 7.393 7.393 0 00.82-4.144v-1.072c.094-1.09.16-2.18.186-3.26.021-.842 0-1.683 0-2.524a6.778 6.778 0 003.326 1.675.777.777 0 00-.131.36 100.495 100.495 0 007.756 50.21c.399.927 1.734.139 1.343-.767zm-16.294-36.59a15.255 15.255 0 01-4.815 5.901 16.422 16.422 0 01-7.651 2.53 88.502 88.502 0 01-14.933.587 33.905 33.905 0 01-10.388-1.988 15.17 15.17 0 01-6.007-4.042 15.17 15.17 0 01-3.447-6.367 45.936 45.936 0 01-.444-16.399c.446-4.577 1.06-9.142 1.455-13.724 1.2.274 2.436.356 3.661.244a46.024 46.024 0 0012.775-2.696 8.55 8.55 0 012.74-.698 2.583 2.583 0 012.393 1.246c.19.575.337 1.164.44 1.761.602 1.9 2.962 2.526 4.952 2.62 4.385.199 8.75-.708 12.693-2.638a1.467 1.467 0 011.174-.213 1.3 1.3 0 01.605.783c.453 1.515.731 3.078.827 4.657.065.467.154.931.266 1.389l.038 21.649a3.338 3.338 0 00.868 2.729 3.85 3.85 0 003.718.348c-.259.793-.566 1.57-.92 2.325v-.004zm3.898-17.61a.702.702 0 00-.127-.196c-.016-3.008-.03-6.016-.043-9.026a.697.697 0 00.538.071c4.958-1.46 10.857 2.164 9.646 7.773a5.29 5.29 0 01-4.503 4.366 5.294 5.294 0 01-5.511-2.996v.008zm-67.507 78.042a56.46 56.46 0 0029.362 3.768 79.246 79.246 0 019.56-31.684 40.007 40.007 0 01-12.29 6.046 107.042 107.042 0 01-22.278 3.326c-1.45.116-2.918.243-4.354.482v-10.592c0-.24.016-.497.022-.755h39.82c.336-.522.675-1.043 1.029-1.548h-29.235c-4.07 0-8.171-.148-12.239 0h-.172a.783.783 0 00-.782.783v30.209c.52.254 1.033.53 1.549.796l.008-.831zm99.223 69.062c0 .239-.016.497-.024.753h-49.439a28.5 28.5 0 002.436-3.913 28.686 28.686 0 01-7.332-3.444c-7.402-5.001-11.153-13.471-13.305-21.869a135.308 135.308 0 00-31.555 6.848v-24.088l-1.55-.421v35.251c0 4.07-.148 8.171 0 12.237v.174a.781.781 0 00.783.773h88.361c4.07 0 8.171.149 12.239 0h.172a.78.78 0 00.783-.773v-4.34c-.506.2-1.023.389-1.55.568l-.019 2.244z" fill="#000"/><path d="M329.055 398.976a1.545 1.545 0 00-1.06.473 1.546 1.546 0 000 2.152c.278.289.658.458 1.06.472a1.548 1.548 0 001.06-2.624 1.55 1.55 0 00-1.06-.473zm-10.926-10.926a1.55 1.55 0 000 3.097 1.548 1.548 0 001.06-2.624 1.55 1.55 0 00-1.06-.473zm-33.886 22.422c.159.061.327.096.497.101a1.548 1.548 0 001.06-2.625 1.553 1.553 0 00-1.06-.472 1.543 1.543 0 00-.687.156 1.583 1.583 0 00-.499 2.302c.174.24.413.427.689.538zm24.171 5.502a1.55 1.55 0 000 3.097 1.553 1.553 0 001.06-.472 1.554 1.554 0 000-2.153 1.548 1.548 0 00-1.06-.472zm10.327-13.355a1.554 1.554 0 00-1.495 1.549 1.548 1.548 0 001.495 1.549 1.55 1.55 0 000-3.098z" fill="#FCFCFC"/><path d="M374.24 399.291c-.413-15.082-4.438-30.25-13.035-41.972-8.598-11.723-22.07-19.612-36.066-19.127a35.576 35.576 0 00-29.107 16.029 47.204 47.204 0 00-1.029 1.548c-.315.491-.619.99-.92 1.493a79.246 79.246 0 00-9.56 31.684 114.72 114.72 0 00-.38 4.315 102.012 102.012 0 0120.627 10.566c.16-3 .504-5.987 1.028-8.944a76.054 76.054 0 0115.152-33.348.743.743 0 01.243-.195.41.41 0 01.078-.022.57.57 0 01.182-.039c.037.003.073.01.108.021a.614.614 0 01.139.034.773.773 0 01.146.094.75.75 0 01.065.045.977.977 0 01.162.195.81.81 0 01.041.83.823.823 0 01-.07.139 74.668 74.668 0 00-5.856 8.609 73.342 73.342 0 00-9.97 33.901.782.782 0 01-1.164.67c-1.37-.85-2.727-1.697-4.099-2.53a89.017 89.017 0 00-16.914-8.381 36.247 36.247 0 00-20.349-1.565 14.328 14.328 0 00-7.38 3.424 8.19 8.19 0 00-1.155 1.612 8.7 8.7 0 00-1.15 4.188 8.433 8.433 0 001.15 4.285 8.027 8.027 0 001.127 1.545 25.96 25.96 0 003.375 2.761 72.342 72.342 0 003.661 2.554 77.09 77.09 0 0022.893 10.034c1.37.354 2.763.661 4.154.947 2.474.512 4.972.896 7.485 1.152 1.156.114 2.326.182 3.496.251a64.27 64.27 0 0015.023-.756 25.028 25.028 0 009.031-3.242 21.439 21.439 0 006.308-6.547 80.763 80.763 0 008.294-17.946 100.875 100.875 0 004.622-19.763.812.812 0 01.174-.391.876.876 0 01.814-.319.579.579 0 01.213.059.583.583 0 01.196.135.57.57 0 01.092.146c.012.026.025.045.035.073a.755.755 0 01.023.303 101.894 101.894 0 01-6.787 25.773 99.087 99.087 0 01-4.385 9.375 32.375 32.375 0 01-5.512 7.785c-4.792 4.761-11.499 6.181-18.001 6.727a74.572 74.572 0 01-7.739.196 78.22 78.22 0 01-11.662-1.094 72.717 72.717 0 01-4.527-.945c-.282.029-.562.055-.844.086 2.164 8.398 5.907 16.869 13.306 21.87a28.698 28.698 0 007.331 3.444 74.67 74.67 0 0017.434 2.71 99.477 99.477 0 0022.776-.13 42.48 42.48 0 006.817-1.657 34.466 34.466 0 001.549-.567 20.66 20.66 0 0013.333-14.413 134.64 134.64 0 004.978-37.715zm-71.289-13a1.547 1.547 0 01-1.495-1.549 1.55 1.55 0 011.495-1.548 1.548 1.548 0 011.06 2.624 1.55 1.55 0 01-1.06.473zm5.463-26.712a1.552 1.552 0 01-1.06-2.625 1.547 1.547 0 011.06-.473 1.55 1.55 0 010 3.098zm29.741 14.569a1.535 1.535 0 01-1.312-.785 1.531 1.531 0 01.021-1.53c.029-.059.062-.116.098-.172.051-.07.108-.136.172-.196.13-.113.273-.209.426-.287a1.58 1.58 0 01.587-.122c.206.001.41.043.599.124.05.022.098.048.145.078.112.059.214.136.303.227.128.121.228.271.29.436.023.055.054.104.074.161a1.72 1.72 0 01.037.818c0 .037 0 .072-.017.109a1.641 1.641 0 01-.133.354l-.042.071a1.37 1.37 0 01-1.242.714h-.006zm4.262-16.389a1.508 1.508 0 01-1.224-.629 1.509 1.509 0 01-.201-1.361 1.47 1.47 0 011.425-1.115 1.466 1.466 0 011.424 1.115 1.505 1.505 0 01-1.424 1.99zm9.106 58.277a1.548 1.548 0 01-1.06-2.625 1.553 1.553 0 011.06-.472 1.55 1.55 0 01-.006 3.097h.006zm4.416-20.674a1.348 1.348 0 01-.168.033 1.39 1.39 0 01-.846-.242 1.392 1.392 0 01-.535-.699 1.769 1.769 0 010-1.213c.098-.284.286-.53.535-.699.248-.17.545-.256.846-.244.057.009.113.02.168.035.364.053.697.236.937.515a1.532 1.532 0 01-.943 2.514h.006zm4.082-29.712a1.553 1.553 0 01-1.495-1.549 1.55 1.55 0 011.495-1.548 1.55 1.55 0 01-.006 3.097h.006zm3.643 61.314a1.55 1.55 0 111.091-.452 1.546 1.546 0 01-1.097.452h.006zm1.82-27.925a1.554 1.554 0 01-1.495-1.549 1.55 1.55 0 011.495-1.549 1.547 1.547 0 011.492 1.552 1.552 1.552 0 01-1.498 1.546h.006z" fill="#F9D476"/><path d="M281.94 446.012c-10.419 5.052-19.67 13.317-22.916 23.897-2.618 8.539-1.135 17.634.643 26.321 2.031 9.932 4.422 19.794 6.811 29.652a33.146 33.146 0 004.305 11.37 12.55 12.55 0 0010.672 5.735c7.631-.513 11.372-9.001 12.675-16.106a114.638 114.638 0 00-.927-45.893 144.781 144.781 0 0054.24-15.082c7.655-3.876 15.665-9.502 16.65-17.61 1.127-9.289-8.179-17.276-17.947-18.843-9.768-1.567-53.785 11.509-64.206 16.559z" fill="#74A3D7"/><path d="M282.977 297.253c-3.109-1.652-7.445-2.696-10.055.424-.636.76.454 1.861 1.095 1.096 2.153-2.565 5.659-1.522 8.179-.184.881.468 1.664-.869.781-1.336zm19.387 2.366c-.928.342-.527 1.839.411 1.492a7.104 7.104 0 018.192 2.239c.601.783 1.945 0 1.337-.783a8.654 8.654 0 00-9.94-2.948zm-9.717 17.557c.945.321 1.352-1.174.411-1.493-1.761-.587-3.61-.311-5.381-.759a3.862 3.862 0 01-1.884-.979 3.214 3.214 0 01-.48-2.816c.576-4.109 1.204-8.217 1.806-12.327.143-.978-1.348-1.397-1.493-.412l-1.058 7.216-.517 3.522a18.268 18.268 0 00-.391 3.426 4.05 4.05 0 002.778 3.587c1.992.806 4.195.363 6.209 1.035zm10.345.861a22.548 22.548 0 01-16.436 1.817.781.781 0 00-.852.568.783.783 0 00.439.925 24.167 24.167 0 0016.712-1.546c.867 4.638-4.109 7.845-8.201 8.6-.978.18-.563 1.673.413 1.493 5.189-.957 11.054-5.479 9.052-11.394a.775.775 0 00-.453-.501.782.782 0 00-.674.038zm-21.439-16.205a2.323 2.323 0 000 4.645 2.324 2.324 0 000-4.645zm25.724 2.048a2.326 2.326 0 00-2.229 2.323 2.325 2.325 0 002.229 2.322 2.324 2.324 0 000-4.645z" fill="#000"/><path d="M419.37 348.13v-63.631c0-1.87.03-3.741 0-5.611a4.973 4.973 0 00-1.254-2.822l-20.249-30.817-20.25-30.818-1.15-1.749-.668-1.018v-57.606h-25.497v18.796l-32.917-50.091-12.399-18.87a.79.79 0 00-.669-.375.78.78 0 00-.668.375l-13.264 20.185c-10.347 15.75-20.695 31.499-31.044 47.248l-35.6 54.178-27.237 41.452-6.429 9.783a4.542 4.542 0 00-.812 3.168V521.33a.782.782 0 00.782.783h219.249c2.966.152 5.938.152 8.904 0 .131-.007.261-.007.392 0a.782.782 0 00.782-.783v-173.2h-.002zm-1.547-66.865V515.04a52.296 52.296 0 000 5.515H193.514a20.495 20.495 0 00-2.692-.054v-236.15a44.914 44.914 0 01-.024-5.87.873.873 0 01.102-.165c.229-.297.419-.638.624-.951l2.568-3.913 23.313-35.482 34.909-53.13a313527.27 313527.27 0 0033.123-50.409l18.684-28.434.195-.314 29.525 44.931 24.157 36.766 17.132 26.075 15.196 23.127c7.752 11.795 15.503 23.591 23.253 35.387l3.24 4.931c.254.444.536.873.843 1.283.081.098.147.206.196.323a27.6 27.6 0 01-.035 2.759z" fill="#5B5B5B"/><path d="M202.619 259.687v258.609a.781.781 0 001.547 0V259.687a.781.781 0 00-1.547 0zm16.391-16.998v271.357a.781.781 0 001.547 0V242.689a.781.781 0 00-1.547 0zm18.819-17.606v61.921a.781.781 0 001.284.476.783.783 0 00.264-.476v-61.921a.783.783 0 00-1.548 0zm-.609 84.383v53.104a.785.785 0 001.288.481.785.785 0 00.262-.481v-2.714a.785.785 0 00-1.288-.48.785.785 0 00-.262.48v2.714a.785.785 0 001.288.481.785.785 0 00.262-.481v-53.104a.785.785 0 00-1.288-.48.785.785 0 00-.262.48zm-1.819 101.379v102.584a.781.781 0 001.547 0V410.845a.781.781 0 00-1.547 0zm20.639-221.579v46.745a.777.777 0 00.774.672.783.783 0 00.775-.672v-46.745a.78.78 0 00-1.287-.48.775.775 0 00-.262.48zm0 69.21v85.596a.777.777 0 00.774.672.783.783 0 00.775-.672v-85.596a.78.78 0 00-1.287-.481.775.775 0 00-.262.481zm20.633-98.348v91.666a.781.781 0 001.547 0v-91.666a.783.783 0 00-1.547 0zm23.675-33.995v49.173a.783.783 0 001.548 0v-49.173a.781.781 0 00-1.284-.477.782.782 0 00-.264.477zm20.647 16.391v36.423a.783.783 0 001.55 0v-36.423a.785.785 0 00-1.288-.481.785.785 0 00-.262.481zm20.034 40.673v40.059a.783.783 0 001.548 0v-40.059a.781.781 0 00-1.284-.476.783.783 0 00-.264.476zm1.214 99.557v48.566a.778.778 0 00.774.673.78.78 0 00.775-.673v-48.566a.777.777 0 00-.775-.672.781.781 0 00-.774.672zm29.132-3.035v78.312a.79.79 0 00.262.481.787.787 0 001.026 0 .79.79 0 00.262-.481v-78.312a.783.783 0 00-1.55 0zm23.676 7.892v52.207a.785.785 0 001.288.481.785.785 0 00.262-.481v-52.207a.785.785 0 00-1.288-.481.785.785 0 00-.262.481zm0 66.777v159.663a.785.785 0 001.288.481.785.785 0 00.262-.481V354.388a.785.785 0 00-1.288-.481.785.785 0 00-.262.481zM366.525 459.41v60.707a.78.78 0 001.288.481.778.778 0 00.261-.481V459.41a.781.781 0 00-1.549 0zm-27.924 29.757v29.741a.783.783 0 001.548 0v-29.741a.782.782 0 00-1.548 0zm-27.925 4.846v25.496a.775.775 0 00.262.48.778.778 0 001.025 0 .775.775 0 00.262-.48v-25.496a.78.78 0 00-1.287-.48.775.775 0 00-.262.48z" fill="#5B5B5B"/></svg>