<svg width="329" height="346" fill="none" xmlns="http://www.w3.org/2000/svg"><path fill-rule="evenodd" clip-rule="evenodd" d="M208.661 111.641c8.524 9.156 21.036 12.681 29.657 21.746 10.634 11.182 26.097 21.591 26.213 37.002.115 15.367-16.999 24.467-25.658 37.157-8.695 12.742-14.095 27.038-25.351 37.592-15.626 14.652-31.817 41.733-52.243 35.166-21.73-6.985-16.336-41.3-27.939-60.942-7.277-12.32-20.333-19.576-27.076-32.195-8.322-15.573-18.602-31.71-16.425-49.214 2.308-18.555 15.253-33.743 28.398-47.04 14.315-14.48 30.382-37.08 50.261-32.523 22.125 5.072 24.698 36.64 40.163 53.251z" fill="#FFECF2"/><path clip-rule="evenodd" d="M217.742 93.921c11.317 12.156 27.93 16.836 39.376 28.872 14.119 14.846 34.65 28.668 34.803 49.129.153 20.404-22.569 32.486-34.066 49.334-11.545 16.918-18.715 35.9-33.659 49.913-20.747 19.454-42.244 55.41-69.365 46.691-28.851-9.275-21.69-54.835-37.095-80.915-9.662-16.358-26.998-25.992-35.95-42.747-11.05-20.677-24.699-42.102-21.808-65.342C63.043 104.22 80.23 84.054 97.683 66.4c19.007-19.226 40.339-49.232 66.733-43.182 29.376 6.734 32.793 48.647 53.326 70.703z" stroke="#FFD0E0" stroke-width="2"/></svg>