<svg width="433" height="442" fill="none" xmlns="http://www.w3.org/2000/svg"><path fill-rule="evenodd" clip-rule="evenodd" d="M152.922 265.891c-4.76-12.021-15.478-20.121-20.366-32.091-6.029-14.764-16.998-30.603-11.311-45.48 5.672-14.836 25.569-17.157 38.678-26.114 13.165-8.994 23.742-20.724 38.547-26.648 20.555-8.226 46.329-28.201 63.521-14.195 18.289 14.9.186 45.902 3.964 69.175 2.37 14.597 12.208 26.495 13.951 41.179 2.151 18.121 5.976 37.523-2.706 53.553-9.203 16.992-27.378 26.742-45.035 34.595-19.227 8.553-43.197 24.262-60.617 12.397-19.39-13.207-9.989-44.562-18.626-66.371z" fill="#FFECF2"/><path clip-rule="evenodd" d="M137.798 274.579c-6.115-15.442-19.884-25.849-26.163-41.225-7.746-18.968-21.837-39.315-14.53-58.428 7.285-19.059 32.846-22.041 49.688-33.547 16.912-11.555 30.5-26.624 49.52-34.235 26.406-10.566 59.517-36.229 81.603-18.235 23.495 19.142.239 58.969 5.093 88.867 3.044 18.753 15.683 34.037 17.922 52.901 2.763 23.28 7.677 48.205-3.477 68.798-11.822 21.83-35.171 34.355-57.854 44.444-24.701 10.986-55.494 31.168-77.874 15.925-24.909-16.966-12.832-57.248-23.928-85.265z" stroke="#FFD0E0" stroke-width="2"/></svg>