<svg width="407" height="419" fill="none" xmlns="http://www.w3.org/2000/svg"><path fill-rule="evenodd" clip-rule="evenodd" d="M146.487 255.508c-5.993-11.226-17.376-17.955-23.488-29.116-7.539-13.768-20.028-28.036-16.122-43.218 3.894-15.14 23.094-19.624 34.918-29.842 11.873-10.261 20.911-22.909 34.73-30.35 19.186-10.331 42.168-32.734 60.539-20.951 19.544 12.537 5.291 44.869 11.576 67.208 3.942 14.011 14.887 24.551 18.225 38.717 4.121 17.482 10.02 36.03 3.313 52.672-7.108 17.642-23.797 29.199-40.19 38.844-17.852 10.504-39.544 28.534-57.9 18.869-20.431-10.757-14.728-42.467-25.601-62.833z" fill="#FFECF2"/><path clip-rule="evenodd" d="M131.603 271.449c-7.823-14.652-22.68-23.435-30.658-38.003-9.84-17.97-26.141-36.593-21.043-56.41 5.084-19.761 30.144-25.613 45.577-38.95 15.496-13.393 27.294-29.902 45.331-39.615 25.042-13.484 55.039-42.726 79.018-27.345 25.509 16.363 6.905 58.564 15.108 87.722 5.146 18.288 19.431 32.045 23.789 50.535 5.378 22.818 13.078 47.027 4.325 68.75-9.279 23.026-31.062 38.111-52.459 50.7-23.3 13.709-51.613 37.244-75.573 24.628-26.667-14.04-19.223-55.429-33.415-82.012z" stroke="#FFD0E0" stroke-width="2"/></svg>