<svg width="43" height="43" fill="none" xmlns="http://www.w3.org/2000/svg"><path d="M6.303 0H1.265A1.26 1.26 0 00.006 1.26v5.12a1.26 1.26 0 102.519 0V2.519h3.778a1.26 1.26 0 100-2.519zm35.431 0h-5.037a1.26 1.26 0 100 2.519h3.778V6.38a1.26 1.26 0 002.519 0V1.26A1.26 1.26 0 0041.734 0zM6.303 40.469H2.525v-3.862a1.26 1.26 0 00-2.519 0v5.121c0 .696.564 1.26 1.26 1.26h5.037a1.26 1.26 0 000-2.519zm35.431-5.122a1.26 1.26 0 00-1.259 1.26v3.862h-3.778a1.26 1.26 0 000 2.519h5.037a1.26 1.26 0 001.26-1.26v-5.121a1.26 1.26 0 00-1.26-1.26zm-2.062-25.015L22.132.17a1.26 1.26 0 00-1.263 0L3.32 10.332a1.263 1.263 0 00-.628 1.089v20.157c0 .452.246.875.64 1.097L20.87 42.83c.189.11.413.17.631.17.227 0 .45-.064.631-.17L39.66 32.675l.009-.005c.406-.293.625-.54.631-1.077V11.428l.001-.007c0-.448-.242-.865-.628-1.089zM20.24 39.555L6.48 31.584 17.09 25.5a1.26 1.26 0 10-1.253-2.185L5.212 29.404V13.598l15.029 8.63v17.327zm1.26-19.508l-15.02-8.63L21.5 2.715l15.02 8.702-15.02 8.63zm16.29 9.357l-10.626-6.088a1.26 1.26 0 10-1.253 2.185l10.607 6.083-13.759 7.971V22.23l15.03-8.631v15.806z" fill="#F78CB6"/></svg>