<svg width="48" height="44" fill="none" xmlns="http://www.w3.org/2000/svg"><path d="M47.998 38.447V11.815a4.331 4.331 0 00-4.507-4.448h-9.54V5.552A4.507 4.507 0 0029.442.928H18.556a4.507 4.507 0 00-4.507 4.624v1.815H4.51a4.332 4.332 0 00-4.507 4.448v26.633a4.507 4.507 0 004.507 4.624h38.98a4.507 4.507 0 004.507-4.625zM18.436 3.273l.12-.003h10.887a2.166 2.166 0 012.166 2.282v1.815H16.391V5.552a2.166 2.166 0 012.045-2.28zm25.175 37.454a2.19 2.19 0 01-.12.003H4.51a2.166 2.166 0 01-2.166-2.282V30.78a3.63 3.63 0 002.166.585h11.88v3.395a1.522 1.522 0 001.405 1.288h12.409a1.522 1.522 0 001.404-1.288v-3.395H43.49a3.628 3.628 0 002.166-.585v7.668a2.166 2.166 0 01-2.045 2.28zm-24.879-7.02v-5.854h10.536v5.853H18.732zm24.88-4.686a2.19 2.19 0 01-.12.003H31.608v-2.517c0-.644-.76-.995-1.405-.995H17.796c-.644 0-1.405.351-1.405.995v2.517H4.509a2.166 2.166 0 01-2.166-2.283V11.815a1.99 1.99 0 012.166-2.107H43.49a1.99 1.99 0 012.166 2.107v14.926a2.166 2.166 0 01-2.045 2.28z" fill="#FCFCFC"/></svg>