<svg width="108" height="24" fill="none" xmlns="http://www.w3.org/2000/svg"><g clip-path="url(#clip0)" fill="#fff"><path d="M.96 23h8.896v-.448c-3.2-.416-4.16-1.76-4.16-4.992V2.872h.192l8.32 20.16h1.152l7.456-20.16h.16v17.856c0 1.28-.8 1.728-3.072 1.824V23h11.04v-.448c-2.688-.096-3.328-.608-3.328-1.824V2.968c0-1.216.64-1.76 3.328-1.856V.696h-8.16l-6.048 16.448h-.16L9.984.696H.96v.416c2.752.064 3.936 1.536 3.936 3.456V17.56c0 3.232-.928 4.608-3.936 4.992V23zm51.168.352h1.536V6.104c0-3.168.864-4.544 3.872-4.992V.696h-9.088v.416c3.232.384 4.416 1.824 4.416 4.992v10.624h-.032L40.512.696H32.96v.416c2.752.128 3.936 1.76 3.936 3.712V17.56c0 3.232-.928 4.608-3.936 4.992V23h9.024v-.448c-3.264-.352-4.288-1.76-4.288-4.992V4.728h.032l14.4 18.624zM63.6 23h12.096v-.448c-2.848-.064-3.712-.608-3.712-1.824V1.272h.768c2.464 0 4.384 2.464 6.624 6.816l.48-.064-.16-7.328H59.568l-.192 7.328.48.064c2.272-4.448 4.224-6.816 6.656-6.816h.8v19.456c0 1.216-.896 1.76-3.712 1.824V23zm38.528.352h1.536V6.104c0-3.168.864-4.544 3.872-4.992V.696h-9.088v.416c3.232.384 4.416 1.824 4.416 4.992v10.624h-.032L90.512.696H82.96v.416c2.752.128 3.936 1.76 3.936 3.712V17.56c0 3.232-.928 4.608-3.936 4.992V23h9.024v-.448c-3.264-.352-4.288-1.76-4.288-4.992V4.728h.032l14.4 18.624z"/></g><defs><clipPath id="clip0"><path fill="#fff" d="M0 0h108v24H0z"/></clipPath></defs></svg>