<svg width="37" height="37" fill="none" xmlns="http://www.w3.org/2000/svg"><circle cx="18.5" cy="18.5" r="18.5" fill="#333"/><path d="M28.948 14.027l-.006-.052a.704.704 0 00-.059-.188l-2.94-5.27S25.566 8 25.477 8H12.944l-3.769 5.609-.045.051-.006.025a.966.966 0 00-.078.18l-.015.05a.902.902 0 00.006.492l.018.056a.905.905 0 00.087.182l9.113 12.85.018.03a.832.832 0 00.174.18l.053.037a.897.897 0 00.185.098l.052.019a.88.88 0 00.242.037.873.873 0 00.252-.04l.062-.025a.866.866 0 00.18-.098l.04-.028a.763.763 0 00.158-.162l9.125-12.865a.96.96 0 00.153-.408l.007-.067.004-.052-.012-.124zm-4.892-.342l1.299-2.617 1.297 2.617h-2.596zm-.78 1.55h3.082l-5.136 7.242 2.055-7.242zm-.761-2.335l-1.876-2.833h3.282L22.515 12.9zm-6.01 2.335h4.949l-2.475 8.721-2.473-8.721zm.491-1.55l1.983-2.996 1.983 2.996h-3.966zm-1.396-1.02l-.86-2.598h2.58l-1.72 2.598zm1.137 9.813l-5.136-7.243h3.081l2.055 7.243zm-3.484-11.392l.86 2.599h-2.58l1.72-2.599z" fill="#fff"/></svg>